<svg width="103" height="106" viewBox="0 0 103 106" fill="none" xmlns="http://www.w3.org/2000/svg">
<path d="M87.4137 80.4729C93.8012 72.3017 103.496 83.6018 98.0143 91.6154C92.5554 99.629 76.9943 93.8439 87.4137 80.4729Z" fill="#CED9E7"/>
<path d="M95.2272 77.6366C94.9101 77.3215 94.2532 77.4565 94.1173 77.9067C93.9814 78.3344 94.4117 78.8296 94.8648 78.7621C95.3178 78.6721 95.6122 78.0193 95.2272 77.6366Z" stroke="#011635" stroke-width="1.2" stroke-miterlimit="10" stroke-linecap="round" stroke-linejoin="round"/>
<path d="M14.3873 5.98816C14.0702 5.67302 13.4134 5.80808 13.2774 6.25828C13.1415 6.68597 13.5719 7.18119 14.0249 7.11366C14.4779 7.02362 14.7724 6.37083 14.3873 5.98816Z" stroke="#011635" stroke-width="1.2" stroke-miterlimit="10" stroke-linecap="round" stroke-linejoin="round"/>
<path d="M97.7643 28.9921C97.4472 28.6769 96.7903 28.812 96.6544 29.2622C96.5185 29.6899 96.9489 30.1851 97.4019 30.1176C97.8322 30.0275 98.1494 29.3747 97.7643 28.9921Z" stroke="#011635" stroke-width="1.2" stroke-miterlimit="10" stroke-linecap="round" stroke-linejoin="round"/>
<path d="M3.9668 73.3164C3.9668 74.0142 3.98945 74.712 3.98945 75.4098" stroke="#011635" stroke-width="1.2" stroke-miterlimit="10" stroke-linecap="round" stroke-linejoin="round"/>
<path d="M3.01562 74.3516C3.6725 74.3516 4.30672 74.3516 4.9636 74.3516" stroke="#011635" stroke-width="1.2" stroke-miterlimit="10" stroke-linecap="round" stroke-linejoin="round"/>
<path d="M49.4961 14.248C49.4961 14.9459 49.5187 15.6437 49.5187 16.3415" stroke="#011635" stroke-width="1.2" stroke-miterlimit="10" stroke-linecap="round" stroke-linejoin="round"/>
<path d="M48.5215 15.3066C49.1784 15.3066 49.8126 15.3066 50.4695 15.3066" stroke="#011635" stroke-width="1.2" stroke-miterlimit="10" stroke-linecap="round" stroke-linejoin="round"/>
<path d="M1 30.6797L2.13254 32.8181" stroke="#011635" stroke-width="1.2" stroke-miterlimit="10" stroke-linecap="round" stroke-linejoin="round"/>
<path d="M92.9629 90.9629L94.0954 93.1013" stroke="#011635" stroke-width="1.2" stroke-miterlimit="10" stroke-linecap="round" stroke-linejoin="round"/>
<path d="M43.8792 84.0742L41.9766 85.5824" stroke="#011635" stroke-width="1.2" stroke-miterlimit="10" stroke-linecap="round" stroke-linejoin="round"/>
<path d="M59.1002 1.53125L56.6992 1.8689" stroke="#011635" stroke-width="1.2" stroke-miterlimit="10" stroke-linecap="round" stroke-linejoin="round"/>
<path d="M5.89317 86.3047L3.49219 86.6423" stroke="#011635" stroke-width="1.2" stroke-miterlimit="10" stroke-linecap="round" stroke-linejoin="round"/>
<path d="M101.729 36.6016L101.457 39.0101" stroke="#011635" stroke-width="1.2" stroke-miterlimit="10" stroke-linecap="round" stroke-linejoin="round"/>
<path d="M23.4476 1.82422L23.1758 4.21029" stroke="#011635" stroke-width="1.2" stroke-miterlimit="10" stroke-linecap="round" stroke-linejoin="round"/>
<path d="M47.3429 28.6778C47.6056 28.6778 47.8185 28.4662 47.8185 28.2051C47.8185 27.9441 47.6056 27.7324 47.3429 27.7324C47.0801 27.7324 46.8672 27.9441 46.8672 28.2051C46.8672 28.4662 47.0801 28.6778 47.3429 28.6778Z" fill="#011635"/>
<path d="M91.921 3.48839C92.1837 3.48839 92.3966 3.27675 92.3966 3.01568C92.3966 2.75461 92.1837 2.54297 91.921 2.54297C91.6583 2.54297 91.4453 2.75461 91.4453 3.01568C91.4453 3.27675 91.6583 3.48839 91.921 3.48839Z" fill="#011635"/>
<path d="M88.5225 77.3907C88.7852 77.3907 88.9982 77.1791 88.9982 76.918C88.9982 76.657 88.7852 76.4453 88.5225 76.4453C88.2598 76.4453 88.0469 76.657 88.0469 76.918C88.0469 77.1791 88.2598 77.3907 88.5225 77.3907Z" fill="#011635"/>
<path d="M35.3839 99.09C35.6466 99.09 35.8595 98.8783 35.8595 98.6172C35.8595 98.3562 35.6466 98.1445 35.3839 98.1445C35.1212 98.1445 34.9082 98.3562 34.9082 98.6172C34.9082 98.8783 35.1212 99.09 35.3839 99.09Z" fill="#011635"/>
<path d="M18.3057 74.3517C18.5684 74.3517 18.7814 74.14 18.7814 73.879C18.7814 73.6179 18.5684 73.4062 18.3057 73.4062C18.043 73.4062 17.8301 73.6179 17.8301 73.879C17.8301 74.14 18.043 74.3517 18.3057 74.3517Z" fill="#011635"/>
<path d="M4.01278 15.7794C4.27548 15.7794 4.48844 15.5678 4.48844 15.3067C4.48844 15.0456 4.27548 14.834 4.01278 14.834C3.75007 14.834 3.53711 15.0456 3.53711 15.3067C3.53711 15.5678 3.75007 15.7794 4.01278 15.7794Z" fill="#011635"/>
<path d="M57.8984 105.999H79.3035C80.4586 98.0533 79.5753 89.8146 81.5912 82.0261C81.9536 80.5629 82.4293 79.1448 82.9502 77.7492V65.166L64.5578 65.5937C63.1761 70.0057 65.5997 74.6428 65.8942 79.2573C66.5511 88.6215 58.51 96.7026 57.8984 105.999Z" fill="#FF685B"/>
<path d="M64.4229 71.4463C68.4548 71.4688 76.5185 71.3788 82.9513 70.4109V65.166L64.5588 65.5937C63.9699 67.5071 64.0832 69.4654 64.4229 71.4463Z" fill="#F05548"/>
<path d="M4.96434 50.6479C4.87373 55.9828 5.32675 60.6874 6.52724 65.527C6.88965 66.9677 8.1581 68.0031 9.67571 68.0707C37.7854 69.2862 65.7591 69.4888 93.9141 68.9035C95.545 68.881 96.9267 67.688 97.1758 66.0898C98.2631 59.4493 99.0785 52.6963 98.8973 45.9883L4.96434 50.6479Z" fill="#011635" stroke="#011635" stroke-width="1.2" stroke-miterlimit="10" stroke-linecap="round" stroke-linejoin="round"/>
<path d="M97.697 63.5237C99.124 54.9699 99.3278 46.2134 98.2859 37.6146C98.0367 35.6112 96.4512 34.058 94.4352 33.8329C65.6687 30.704 37.0154 31.0641 8.88312 34.9359C6.84454 35.2285 5.28164 36.8943 5.14573 38.9427C4.62476 46.9788 4.89657 54.9248 6.18767 62.9834C6.50478 65.0093 8.24889 66.54 10.3101 66.6076C37.8082 67.5755 65.3516 67.7781 93.5066 67.1253C95.5904 67.0803 97.3572 65.5721 97.697 63.5237Z" fill="#20BF55"/>
<path d="M13.5708 37.0739C12.5289 37.0288 11.4416 36.9838 10.4223 37.2089C9.40305 37.4565 8.40641 38.0193 7.88544 38.9422C7.45508 39.7301 7.40978 40.653 7.43243 41.5309C7.43243 42.5438 7.50038 43.5568 7.59098 44.5697C7.63628 45.1325 7.79484 45.8303 8.36111 45.9879C8.70087 46.0779 9.08594 45.9203 9.31245 45.6277C9.53895 45.3576 9.62956 44.9974 9.65221 44.6373C9.76546 43.4217 9.31245 42.1161 9.90137 41.0582C10.445 40.0902 11.6908 39.7526 12.8007 39.64C13.9106 39.5275 15.1111 39.5275 16.0624 38.9197C16.4022 38.6946 16.7419 38.3344 16.6966 37.9293C16.6287 37.389 15.9944 37.1414 15.4508 37.1189C14.9072 37.0964 14.3409 37.0964 13.5708 37.0739Z" fill="white"/>
<path d="M19.9142 38.8291C19.3932 38.8741 18.8722 38.4689 18.8043 37.9512C18.7363 37.4334 19.1441 36.9157 19.665 36.8257C20.186 36.7356 20.7296 37.1183 20.8202 37.636C20.9108 38.1087 20.5711 38.7615 19.9142 38.8291Z" fill="white"/>
<path d="M97.697 63.5237C99.124 54.9699 99.3278 46.2134 98.2859 37.6146C98.0367 35.6112 96.4512 34.058 94.4353 33.8329C65.6687 30.704 37.0154 31.0641 8.88312 34.9359C6.84454 35.2285 5.28164 36.8943 5.14573 38.9427C4.62476 46.9788 4.89657 54.9248 6.18767 62.9834C6.50478 65.0094 8.24889 66.54 10.3101 66.6076C37.8082 67.5755 65.3516 67.7781 93.5066 67.1253C95.5904 67.0803 97.3572 65.5721 97.697 63.5237Z" stroke="#011635" stroke-width="1.2" stroke-miterlimit="10" stroke-linecap="round" stroke-linejoin="round"/>
<path d="M51.9193 55.3515L48.2272 57.2648L48.9294 53.1905L45.9395 50.3092L50.0619 49.7014L51.9193 46.0098L53.754 49.7014L57.8764 50.3092L54.8865 53.1905L55.5887 57.2648L51.9193 55.3515Z" fill="#FD447D"/>
<path d="M53.7528 49.7019L52.2578 46.6855V55.532L55.5875 57.2653L54.8853 53.191L57.8752 50.3097L53.7528 49.7019Z" fill="white"/>
<path d="M51.9193 55.3515L48.2272 57.2648L48.9294 53.1905L45.9395 50.3092L50.0619 49.7014L51.9193 46.0098L53.754 49.7014L57.8764 50.3092L54.8865 53.1905L55.5887 57.2648L51.9193 55.3515Z" stroke="#011635" stroke-width="1.2" stroke-miterlimit="10" stroke-linecap="round" stroke-linejoin="round"/>
<path d="M34.8869 55.3515L31.2174 57.2648L31.9196 53.1905L28.9297 50.3092L33.0521 49.7014L34.8869 46.0098L36.7442 49.7014L40.8667 50.3092L37.8768 53.1905L38.5789 57.2648L34.8869 55.3515Z" fill="#FD447D"/>
<path d="M34.8869 55.3515L31.2174 57.2648L31.9196 53.1905L28.9297 50.3092L33.0521 49.7014L34.8869 46.0098L36.7442 49.7014L40.8667 50.3092L37.8768 53.1905L38.5789 57.2648L34.8869 55.3515Z" stroke="#011635" stroke-width="1.2" stroke-miterlimit="10" stroke-linecap="round" stroke-linejoin="round"/>
<path d="M17.8751 55.3515L14.1831 57.2648L14.8852 53.1905L11.918 50.3092L16.0404 49.7014L17.8751 46.0098L19.7098 49.7014L23.8323 50.3092L20.865 53.1905L21.5672 57.2648L17.8751 55.3515Z" fill="#FD447D"/>
<path d="M17.8751 55.3515L14.1831 57.2648L14.8852 53.1905L11.918 50.3092L16.0404 49.7014L17.8751 46.0098L19.7098 49.7014L23.8323 50.3092L20.865 53.1905L21.5672 57.2648L17.8751 55.3515Z" stroke="#011635" stroke-width="1.2" stroke-miterlimit="10" stroke-linecap="round" stroke-linejoin="round"/>
<path d="M68.9298 55.3515L65.2377 57.2648L65.9399 53.1905L62.9727 50.3092L67.0951 49.7014L68.9298 46.0098L70.7645 49.7014L74.887 50.3092L71.9197 53.1905L72.6219 57.2648L68.9298 55.3515Z" fill="white"/>
<path d="M68.9298 55.3515L65.2377 57.2648L65.9399 53.1905L62.9727 50.3092L67.0951 49.7014L68.9298 46.0098L70.7645 49.7014L74.887 50.3092L71.9197 53.1905L72.6219 57.2648L68.9298 55.3515Z" stroke="#011635" stroke-width="1.2" stroke-miterlimit="10" stroke-linecap="round" stroke-linejoin="round"/>
<path d="M85.9415 55.3515L82.2721 57.2648L82.9743 53.1905L79.9844 50.3092L84.1068 49.7014L85.9415 46.0098L87.7989 49.7014L91.9214 50.3092L88.9314 53.1905L89.6336 57.2648L85.9415 55.3515Z" fill="white"/>
<path d="M85.9415 55.3515L82.2721 57.2648L82.9743 53.1905L79.9844 50.3092L84.1068 49.7014L85.9415 46.0098L87.7989 49.7014L91.9214 50.3092L88.9314 53.1905L89.6336 57.2648L85.9415 55.3515Z" stroke="#011635" stroke-width="1.2" stroke-miterlimit="10" stroke-linecap="round" stroke-linejoin="round"/>
<path opacity="0.12" d="M93.5055 67.1254C95.5894 67.0803 97.3561 65.5722 97.6959 63.5237C98.4887 58.7516 98.919 53.9119 98.9417 49.0723C71.2397 62.9385 14.9071 59.4719 5.59766 58.7966C5.75621 60.1923 5.96007 61.5879 6.18658 62.961C6.50369 64.9869 8.2478 66.5176 10.309 66.5851C37.8071 67.5981 65.3505 67.7782 93.5055 67.1254Z" fill="#013532"/>
<path d="M70.7871 73.4733C73.324 70.8847 77.2652 69.1064 80.8214 69.7141C82.0446 67.4181 82.339 66.9904 83.9472 64.942C84.6268 64.0866 85.714 63.1637 86.688 63.704C87.6167 64.2217 87.4355 65.5948 87.1183 66.5852C85.6913 70.8622 84.5362 73.5634 82.9506 77.7728" fill="#FF685B"/>
<path d="M70.7871 73.4733C73.324 70.8847 77.2652 69.1064 80.8214 69.7141C82.0446 67.4181 82.339 66.9904 83.9472 64.942C84.6268 64.0866 85.714 63.1637 86.688 63.704C87.6167 64.2217 87.4355 65.5948 87.1183 66.5852C85.6913 70.8622 84.5362 73.5634 82.9506 77.7728" stroke="#011635" stroke-width="1.2" stroke-miterlimit="10" stroke-linecap="round" stroke-linejoin="round"/>
<path d="M45.1245 64.1302L42.2252 60.7987C41.5683 60.2359 40.5264 59.7407 39.6657 59.6732C38.8049 59.6057 37.9215 59.8758 37.2194 60.371C36.4039 59.7182 35.3167 59.5381 34.2974 59.7182C33.2781 59.8983 32.3268 60.4385 31.6473 61.2264C29.3595 60.7762 27.4795 62.2844 26.5055 64.0852C25.5542 65.886 25.2824 67.9569 24.7614 69.9153C22.0433 80.5626 8.92849 91.9301 5.57617 105.954H27.6154C29.5634 100.822 30.8318 94.4063 32.8025 89.7242C35.1355 84.1642 38.0801 78.7167 42.565 74.6649C43.9693 73.4043 45.5322 72.2338 46.3476 70.5456C47.3669 68.4746 46.846 65.7509 45.1245 64.1302Z" fill="#FF685B"/>
<path d="M41.9753 65.9316C41.9527 66.0666 42.4736 70.141 42.4736 70.141C44.399 69.173 45.8486 67.6198 46.6414 66.6519C46.3696 65.7065 45.8713 64.8061 45.1464 64.1308L44.399 63.2754C43.1305 64.5585 41.9753 65.8415 41.9753 65.9316Z" fill="#F05548"/>
<path d="M41.002 62.0824C42.882 59.5388 45.9172 55.6896 48.0011 53.326C48.7259 52.5156 49.4734 51.6828 50.47 51.2551C51.0136 51.0075 51.6705 50.8949 52.1688 51.2326C52.6218 51.5477 52.7577 52.1555 52.6671 52.6732C52.5765 53.2135 52.3047 53.6862 52.0329 54.1364C48.8618 59.4713 45.668 64.8062 42.4969 70.141" fill="#FF685B"/>
<path d="M41.002 62.0824C42.882 59.5388 45.9172 55.6896 48.0011 53.326C48.7259 52.5156 49.4734 51.6828 50.47 51.2551C51.0136 51.0075 51.6705 50.8949 52.1688 51.2326C52.6218 51.5477 52.7577 52.1555 52.6671 52.6732C52.5765 53.2135 52.3047 53.6862 52.0329 54.1364C48.8618 59.4713 45.668 64.8062 42.4969 70.141" stroke="#011635" stroke-width="1.2" stroke-miterlimit="10" stroke-linecap="round" stroke-linejoin="round"/>
<path d="M38.7132 24.0635L14.0917 22.7129C12.6874 27.485 14.4088 33.1801 18.3274 36.2865C17.965 36.4215 17.6252 36.5791 17.3534 36.8042C16.4701 37.5245 15.8132 38.8301 15.8132 38.8301C15.9944 39.0552 16.1076 39.1678 16.2888 39.3704C17.3761 38.605 18.486 37.8847 19.5732 37.1644C23.5598 39.5729 28.9054 39.6405 32.8919 37.2094C37.2409 34.5757 39.5965 29.0382 38.7132 24.0635Z" fill="#011635" stroke="#011635" stroke-width="1.2" stroke-miterlimit="10" stroke-linecap="round" stroke-linejoin="round"/>
<path d="M38.8268 25.2109C38.5777 19.9886 34.6817 15.1264 29.5853 13.7308C24.4662 12.3352 18.5996 14.5637 15.7003 18.9306C12.801 23.3201 13.1181 29.5329 16.4025 33.6072C16.6743 33.9448 16.9461 34.2375 17.2406 34.5301C16.7196 35.9032 16.1986 37.2763 15.7909 38.807C17.0141 37.9967 18.2372 37.1638 19.4604 36.2859C22.7674 38.3118 27.0031 38.852 30.6499 37.4789C35.633 35.6556 39.076 30.4558 38.8268 25.2109Z" fill="#011635"/>
<path d="M30.6948 37.5014C34.3416 36.1283 37.1729 32.9319 38.3055 29.2402C31.1478 37.0512 20.2528 34.1249 15.4961 32.2791C15.7679 32.7518 16.085 33.202 16.4248 33.6297C16.6966 33.9674 16.9684 34.26 17.2629 34.5526C16.7419 35.9257 16.2209 37.2988 15.8132 38.8295C17.0363 38.0192 18.2595 37.1863 19.4826 36.3084C22.8123 38.3343 27.048 38.8746 30.6948 37.5014Z" fill="#011635"/>
<path d="M38.8268 25.2109C38.5777 19.9886 34.6817 15.1264 29.5853 13.7308C24.4662 12.3352 18.5996 14.5637 15.7003 18.9306C12.801 23.3201 13.1181 29.5329 16.4025 33.6072C16.6743 33.9448 16.9461 34.2375 17.2406 34.5301C16.7196 35.9032 16.1986 37.2763 15.7909 38.807C17.0141 37.9967 18.2372 37.1638 19.4604 36.2859C22.7674 38.3118 27.0031 38.852 30.6499 37.4789C35.633 35.6556 39.076 30.4558 38.8268 25.2109Z" stroke="#011635" stroke-width="1.2" stroke-miterlimit="10" stroke-linecap="round" stroke-linejoin="round"/>
<path d="M26.5049 32.7527C23.9001 31.4921 21.7709 29.3311 20.5478 26.7425C20.0268 25.5944 19.6644 24.3339 19.8682 23.0958C20.0947 21.8578 21.0234 20.6872 22.2692 20.4847C23.2432 20.3271 24.2625 20.7773 24.9873 21.4526C25.7121 22.1279 26.2105 23.0058 26.5729 24.0638C27.2071 23.0733 27.8866 22.0378 28.9059 21.4301C29.9252 20.8223 31.3975 20.7998 32.1903 21.7002C32.8245 22.4205 32.8019 23.5235 32.598 24.4464C31.8958 27.8229 29.4495 30.5917 26.5049 32.7527Z" fill="#011635"/>
<path d="M37.1292 22.4873L12.5077 21.1367C11.1034 25.9089 12.8248 31.6039 16.7434 34.7103C16.381 34.8454 16.0413 35.0029 15.7695 35.228C14.8861 35.9484 14.2292 37.2539 14.2292 37.2539C14.4104 37.479 14.5237 37.5916 14.7049 37.7942C15.7921 37.0288 16.902 36.3085 17.9892 35.5882C21.9758 37.9968 27.3214 38.0643 31.3079 35.6332C35.6569 32.9995 38.0126 27.4621 37.1292 22.4873Z" fill="#011635" stroke="#011635" stroke-width="1.2" stroke-miterlimit="10" stroke-linecap="round" stroke-linejoin="round"/>
<path d="M37.2409 23.6348C36.9917 18.4124 33.0958 13.5502 27.9993 12.1546C22.8803 10.759 17.0137 12.9875 14.1144 17.3544C11.2151 21.7439 11.5322 27.9567 14.8166 32.031C15.0884 32.3687 15.3602 32.6613 15.6546 32.9539C15.1337 34.327 14.6127 35.7002 14.205 37.2308C15.4281 36.4205 16.6513 35.5876 17.8744 34.7097C21.1814 36.7356 25.4171 37.2759 29.0639 35.9027C34.0471 34.0794 37.49 28.8796 37.2409 23.6348Z" fill="white"/>
<path d="M29.1089 35.9253C32.7556 34.5522 35.587 31.3557 36.7195 27.6641C29.5619 35.4751 18.6668 32.5487 13.9102 30.7029C14.182 31.1756 14.4991 31.6258 14.8388 32.0535C15.1107 32.3912 15.3825 32.6838 15.6769 32.9764C15.156 34.3496 14.635 35.7227 14.2273 37.2534C15.4504 36.443 16.6736 35.6101 17.8967 34.7322C21.2264 36.7581 25.4621 37.2984 29.1089 35.9253Z" fill="#DBE1E7"/>
<path d="M37.2409 23.6348C36.9917 18.4124 33.0958 13.5502 27.9993 12.1546C22.8803 10.759 17.0137 12.9875 14.1144 17.3544C11.2151 21.7439 11.5322 27.9567 14.8166 32.031C15.0884 32.3687 15.3602 32.6613 15.6546 32.9539C15.1337 34.327 14.6127 35.7002 14.205 37.2308C15.4281 36.4205 16.6513 35.5876 17.8744 34.7097C21.1814 36.7356 25.4171 37.2759 29.0639 35.9027C34.0471 34.0794 37.49 28.8796 37.2409 23.6348Z" stroke="#011635" stroke-width="1.2" stroke-miterlimit="10" stroke-linecap="round" stroke-linejoin="round"/>
<path d="M24.919 31.1765C22.3141 29.9159 20.185 27.7549 18.9618 25.1663C18.4409 24.0183 18.0784 22.7577 18.2823 21.5197C18.5088 20.2816 19.4375 19.1111 20.6833 18.9085C21.6573 18.7509 22.6766 19.2011 23.4014 19.8764C24.1262 20.5517 24.6245 21.4296 24.9869 22.4876C25.6212 21.4971 26.3007 20.4617 27.32 19.8539C28.3393 19.2461 29.8116 19.2236 30.6043 20.124C31.2386 20.8443 31.2159 21.9473 31.0121 22.8703C30.3099 26.2468 27.8636 29.0155 24.919 31.1765Z" fill="#FD447D"/>
<path d="M65.9397 101.34L67.2987 76.8719C62.4967 75.4763 56.7661 77.1871 53.6403 81.0813C53.5044 80.7211 53.3458 80.3835 53.1193 80.1134C52.3945 79.2355 51.0807 78.5827 51.0807 78.5827C50.8542 78.7628 50.741 78.8753 50.5371 79.0554C51.3072 80.1359 52.0321 81.2389 52.7569 82.3194C50.3333 86.2811 50.2653 91.5935 52.7116 95.5553C55.3391 99.8772 60.9112 102.241 65.9397 101.34Z" fill="#011635" stroke="#011635" stroke-width="1.2" stroke-miterlimit="10" stroke-linecap="round" stroke-linejoin="round"/>
<path d="M64.7631 101.454C70.0181 101.206 74.9107 97.3346 76.315 92.2699C77.7194 87.1826 75.477 81.3525 71.0827 78.4712C66.6658 75.5899 60.4142 75.9051 56.3144 79.169C55.9746 79.4391 55.6801 79.7093 55.3857 80.0019C54.004 79.4842 52.6223 78.9664 51.082 78.5612C51.8975 79.7768 52.7355 80.9923 53.6189 82.2079C51.5803 85.4943 51.0367 89.7037 52.4184 93.3279C54.2758 98.2801 59.5081 101.702 64.7631 101.454Z" fill="#011635"/>
<path d="M76.1557 92.8086C68.8622 98.3911 56.9478 95.5323 52.8027 94.2943C54.9319 98.6837 59.8245 101.678 64.7624 101.452C69.8362 101.227 74.5702 97.6032 76.1557 92.8086Z" fill="#011635"/>
<path d="M64.7631 101.454C70.0181 101.206 74.9107 97.3346 76.315 92.2699C77.7194 87.1826 75.477 81.3525 71.0827 78.4712C66.6658 75.5899 60.4142 75.9051 56.3144 79.169C55.9746 79.4391 55.6801 79.7093 55.3857 80.0019C54.004 79.4842 52.6223 78.9664 51.082 78.5612C51.8975 79.7768 52.7355 80.9923 53.6189 82.2079C51.5803 85.4943 51.0367 89.7037 52.4184 93.3279C54.2758 98.2801 59.5081 101.702 64.7631 101.454Z" stroke="#011635" stroke-width="1.2" stroke-miterlimit="10" stroke-linecap="round" stroke-linejoin="round"/>
<path d="M64.2646 89.8829C64.7775 89.8829 65.1933 89.4697 65.1933 88.96C65.1933 88.4503 64.7775 88.0371 64.2646 88.0371C63.7517 88.0371 63.3359 88.4503 63.3359 88.96C63.3359 89.4697 63.7517 89.8829 64.2646 89.8829Z" fill="#011635" stroke="#011635" stroke-width="1.2" stroke-miterlimit="10" stroke-linecap="round" stroke-linejoin="round"/>
<path d="M59.4404 89.8829C59.9533 89.8829 60.3691 89.4697 60.3691 88.96C60.3691 88.4503 59.9533 88.0371 59.4404 88.0371C58.9275 88.0371 58.5117 88.4503 58.5117 88.96C58.5117 89.4697 58.9275 89.8829 59.4404 89.8829Z" fill="#011635" stroke="#011635" stroke-width="1.2" stroke-miterlimit="10" stroke-linecap="round" stroke-linejoin="round"/>
<path d="M69.0888 89.8829C69.6017 89.8829 70.0175 89.4697 70.0175 88.96C70.0175 88.4503 69.6017 88.0371 69.0888 88.0371C68.5759 88.0371 68.1602 88.4503 68.1602 88.96C68.1602 89.4697 68.5759 89.8829 69.0888 89.8829Z" fill="#011635" stroke="#011635" stroke-width="1.2" stroke-miterlimit="10" stroke-linecap="round" stroke-linejoin="round"/>
<path d="M64.3557 99.7642L65.7147 75.2957C60.9128 73.9001 55.1821 75.6109 52.0563 79.5051C51.9204 79.145 51.7618 78.8073 51.5353 78.5372C50.8105 77.6593 49.4967 77.0065 49.4967 77.0065C49.2702 77.1866 49.157 77.2991 48.9531 77.4792C49.7233 78.5597 50.4481 79.6627 51.1729 80.7432C48.7493 84.705 48.6813 90.0173 51.1276 93.9791C53.7551 98.3011 59.3272 100.665 64.3557 99.7642Z" fill="#011635" stroke="#011635" stroke-width="1.2" stroke-miterlimit="10" stroke-linecap="round" stroke-linejoin="round"/>
<path d="M63.1772 99.8759C68.4322 99.6283 73.3248 95.7565 74.7291 90.6918C76.1335 85.6045 73.891 79.7744 69.4968 76.8931C65.0799 74.0118 58.8282 74.3269 54.7284 77.5909C54.3887 77.861 54.0942 78.1311 53.7997 78.4238C52.418 77.906 51.0363 77.3883 49.4961 76.9831C50.3115 78.1987 51.1496 79.4142 52.033 80.6297C49.9944 83.9162 49.4508 88.1256 50.8325 91.7497C52.6899 96.702 57.9222 100.123 63.1772 99.8759Z" fill="white"/>
<path d="M74.5698 91.2344C67.2762 96.8169 55.3619 93.9581 51.2168 92.72C53.346 97.1095 58.2386 100.103 63.1764 99.8783C68.2502 99.6532 72.9842 96.029 74.5698 91.2344Z" fill="#DBE1E7"/>
<path d="M63.1772 99.8759C68.4322 99.6283 73.3248 95.7565 74.7291 90.6918C76.1335 85.6045 73.891 79.7744 69.4968 76.8931C65.0799 74.0118 58.8282 74.3269 54.7284 77.5909C54.3887 77.861 54.0942 78.1311 53.7997 78.4238C52.418 77.906 51.0363 77.3883 49.4961 76.9831C50.3115 78.1987 51.1496 79.4142 52.033 80.6297C49.9944 83.9162 49.4508 88.1256 50.8325 91.7497C52.6899 96.7019 57.9222 100.123 63.1772 99.8759Z" stroke="#011635" stroke-width="1.2" stroke-miterlimit="10" stroke-linecap="round" stroke-linejoin="round"/>
<path d="M62.6787 88.3068C63.1916 88.3068 63.6074 87.8936 63.6074 87.3839C63.6074 86.8741 63.1916 86.4609 62.6787 86.4609C62.1658 86.4609 61.75 86.8741 61.75 87.3839C61.75 87.8936 62.1658 88.3068 62.6787 88.3068Z" fill="#011635" stroke="#011635" stroke-width="1.2" stroke-miterlimit="10" stroke-linecap="round" stroke-linejoin="round"/>
<path d="M57.8545 88.3068C58.3674 88.3068 58.7831 87.8936 58.7831 87.3839C58.7831 86.8741 58.3674 86.4609 57.8545 86.4609C57.3416 86.4609 56.9258 86.8741 56.9258 87.3839C56.9258 87.8936 57.3416 88.3068 57.8545 88.3068Z" fill="#011635" stroke="#011635" stroke-width="1.2" stroke-miterlimit="10" stroke-linecap="round" stroke-linejoin="round"/>
<path d="M67.5029 88.3068C68.0158 88.3068 68.4316 87.8936 68.4316 87.3839C68.4316 86.8741 68.0158 86.4609 67.5029 86.4609C66.99 86.4609 66.5742 86.8741 66.5742 87.3839C66.5742 87.8936 66.99 88.3068 67.5029 88.3068Z" fill="#011635" stroke="#011635" stroke-width="1.2" stroke-miterlimit="10" stroke-linecap="round" stroke-linejoin="round"/>
<path d="M99.441 13.8203L63.7206 15.1484C63.5168 18.5699 63.6527 21.9915 64.1284 25.3905C64.2643 26.3809 65.0797 27.1463 66.099 27.2363C67.6166 27.3939 69.1342 27.5064 70.6744 27.619C71.0822 28.6094 71.6711 29.915 72.3506 30.9055L73.2793 30.6579L73.0528 27.7541C81.1391 28.2043 89.2708 28.1142 97.4704 27.3939C98.6256 27.3039 99.5089 26.3584 99.5089 25.2104L99.441 13.8203Z" fill="#011635" stroke="#011635" stroke-width="1.2" stroke-miterlimit="10" stroke-linecap="round" stroke-linejoin="round"/>
<path d="M99.1908 10.7822C99.0548 9.52163 98.0356 8.53119 96.7898 8.41864C86.7102 7.40569 76.6079 7.27063 66.5509 7.96844C65.2598 8.05848 64.2179 9.04892 64.0593 10.332C63.5157 14.8115 63.5837 19.3135 64.1046 23.9281C64.2405 25.1887 65.2598 26.2016 66.5509 26.3142C68.1138 26.4492 69.6994 26.5843 71.2623 26.6743C71.8286 27.9799 72.4175 29.308 73.3235 30.7036C73.8671 29.4656 74.3202 28.16 74.6599 26.8544C82.112 27.2146 89.6095 27.1245 97.0389 26.6068C98.398 26.5168 99.4852 25.4138 99.5532 24.0632C99.7117 19.6287 99.6438 15.1942 99.1908 10.7822Z" fill="#011635"/>
<path d="M99.5317 24.0404C99.5997 22.217 99.6223 20.3712 99.5997 18.5254C97.5837 20.1911 93.1215 23.1174 85.6921 23.9953C77.3792 24.9858 67.7073 23.4101 63.9473 22.6898C63.9926 23.0949 64.0379 23.5001 64.0832 23.9053C64.2191 25.1659 65.2384 26.1788 66.5295 26.2914C68.0924 26.4264 69.6779 26.5615 71.2408 26.6515C71.8071 27.9571 72.396 29.2852 73.3021 30.6808C73.8457 29.4428 74.2987 28.1372 74.6385 26.8316C82.0906 27.1918 89.588 27.1017 97.0175 26.584C98.3992 26.494 99.4864 25.4135 99.5317 24.0404Z" fill="#011635"/>
<path d="M99.1908 10.7822C99.0548 9.52163 98.0356 8.53119 96.7898 8.41864C86.7102 7.40569 76.6079 7.27063 66.5509 7.96844C65.2598 8.05848 64.2179 9.04892 64.0593 10.332C63.5157 14.8115 63.5837 19.3135 64.1046 23.9281C64.2405 25.1887 65.2598 26.2016 66.5509 26.3142C68.1138 26.4492 69.6994 26.5843 71.2623 26.6743C71.8286 27.9799 72.4175 29.308 73.3235 30.7036C73.8671 29.4656 74.3202 28.16 74.6599 26.8544C82.112 27.2146 89.6095 27.1245 97.0389 26.6068C98.398 26.5168 99.4852 25.4138 99.5532 24.0632C99.7117 19.6287 99.6438 15.1942 99.1908 10.7822Z" stroke="#011635" stroke-width="1.2" stroke-miterlimit="10" stroke-linecap="round" stroke-linejoin="round"/>
<path d="M79.1914 14.834C84.6729 14.9015 90.1544 14.969 95.6359 15.0366" stroke="#011635" stroke-width="1.2" stroke-miterlimit="10" stroke-linecap="round" stroke-linejoin="round"/>
<path d="M78.8965 18.0078C84.5365 18.0528 90.1992 18.0979 95.8393 18.1429" stroke="#011635" stroke-width="1.2" stroke-miterlimit="10" stroke-linecap="round" stroke-linejoin="round"/>
<path d="M78.9648 21.1816C80.641 21.1816 82.3172 21.1816 83.9933 21.1816" stroke="#011635" stroke-width="1.2" stroke-miterlimit="10" stroke-linecap="round" stroke-linejoin="round"/>
<path d="M74.004 13.6173C75.8614 15.0805 76.2238 18.0968 74.7515 19.9426C73.3018 21.811 70.2666 22.1936 68.3866 20.753C66.5066 19.3123 66.0762 16.3185 67.5032 14.4277C68.9302 12.5593 72.0107 12.0416 74.004 13.6173Z" fill="#011635"/>
<path d="M69.8583 15.0582C69.5411 15.9586 70.4698 17.0391 71.4212 16.859C72.3725 16.6789 72.8482 15.3283 72.2139 14.608C71.5797 13.8652 70.1754 14.1353 69.8583 15.0582Z" fill="#011635"/>
<path d="M68.3859 20.7547C70.1753 22.1053 72.9613 21.8351 74.5016 20.2369C74.0033 19.1114 72.8934 18.2335 71.6476 18.0985C70.13 17.9409 68.5897 18.9313 68.0234 20.417C68.1367 20.5521 68.2499 20.6646 68.3859 20.7547Z" fill="#011635"/>
<path d="M74.004 13.6173C75.8614 15.0805 76.2238 18.0968 74.7515 19.9426C73.3018 21.811 70.2666 22.1936 68.3866 20.753C66.5066 19.3123 66.0762 16.3185 67.5032 14.4277C68.9302 12.5593 72.0107 12.0416 74.004 13.6173Z" stroke="#011635" stroke-width="1.2" stroke-miterlimit="10" stroke-linecap="round" stroke-linejoin="round"/>
<path d="M97.6068 9.20603C97.4709 7.94546 96.4516 6.95502 95.2058 6.84247C85.1262 5.82951 75.0239 5.69445 64.9669 6.39227C63.6758 6.48231 62.6339 7.47275 62.4754 8.75583C61.9317 13.2353 61.9997 17.7374 62.5207 22.3519C62.6566 23.6125 63.6758 24.6254 64.9669 24.738C66.5298 24.873 68.1154 25.0081 69.6783 25.0982C70.2446 26.4037 70.8335 27.7318 71.7395 29.1275C72.2832 27.8894 72.7362 26.5838 73.0759 25.2782C80.528 25.6384 88.0255 25.5484 95.4549 25.0306C96.814 24.9406 97.9012 23.8376 97.9692 22.487C98.1277 18.0525 98.0598 13.618 97.6068 9.20603Z" fill="#FFE96B"/>
<path d="M97.9458 22.4642C98.0137 20.6409 98.0364 18.795 98.0137 16.9492C95.9978 18.615 91.5356 21.5413 84.1061 22.4192C75.7933 23.4096 66.1214 21.8339 62.3613 21.1136C62.4066 21.5188 62.4519 21.9239 62.4972 22.3291C62.6331 23.5897 63.6524 24.6026 64.9435 24.7152C66.5064 24.8503 68.092 24.9853 69.6549 25.0754C70.2212 26.3809 70.8101 27.709 71.7161 29.1047C72.2597 27.8666 72.7128 26.561 73.0525 25.2554C80.5046 25.6156 88.0021 25.5256 95.4315 25.0078C96.8132 24.9178 97.9005 23.8373 97.9458 22.4642Z" fill="#FFD666"/>
<path d="M97.6068 9.20603C97.4709 7.94546 96.4516 6.95502 95.2058 6.84247C85.1262 5.82951 75.0239 5.69445 64.9669 6.39227C63.6758 6.48231 62.6339 7.47275 62.4754 8.75583C61.9317 13.2353 61.9997 17.7374 62.5207 22.3519C62.6566 23.6125 63.6758 24.6254 64.9669 24.738C66.5298 24.873 68.1154 25.0081 69.6783 25.0982C70.2446 26.4037 70.8335 27.7318 71.7395 29.1275C72.2832 27.8894 72.7362 26.5838 73.0759 25.2782C80.5281 25.6384 88.0255 25.5484 95.4549 25.0306C96.814 24.9406 97.9012 23.8376 97.9692 22.487C98.1277 18.0525 98.0598 13.618 97.6068 9.20603Z" stroke="#011635" stroke-width="1.2" stroke-miterlimit="10" stroke-linecap="round" stroke-linejoin="round"/>
<path d="M77.6055 13.2578C83.087 13.3253 88.5685 13.3929 94.05 13.4604" stroke="#011635" stroke-width="1.2" stroke-miterlimit="10" stroke-linecap="round" stroke-linejoin="round"/>
<path d="M77.3105 16.4316C82.9506 16.4767 88.6133 16.5217 94.2534 16.5667" stroke="#011635" stroke-width="1.2" stroke-miterlimit="10" stroke-linecap="round" stroke-linejoin="round"/>
<path d="M77.3789 19.6055C79.0551 19.6055 80.7312 19.6055 82.4074 19.6055" stroke="#011635" stroke-width="1.2" stroke-miterlimit="10" stroke-linecap="round" stroke-linejoin="round"/>
<path d="M72.4181 12.0431C74.2754 13.5062 74.6379 16.5226 73.1656 18.3684C71.7159 20.2367 68.6807 20.6194 66.8007 19.1788C64.9207 17.7381 64.4903 14.7443 65.9173 12.8534C67.3443 10.9851 70.4248 10.4674 72.4181 12.0431Z" fill="white"/>
<path d="M68.2743 13.484C67.9572 14.3844 68.8858 15.4649 69.8372 15.2848C70.7885 15.1047 71.2642 13.7541 70.63 13.0338C69.9957 12.291 68.5914 12.5611 68.2743 13.484Z" fill="#011635"/>
<path d="M66.7999 19.1785C68.5893 20.5291 71.3754 20.259 72.9156 18.6608C72.4173 17.5353 71.3074 16.6574 70.0616 16.5223C68.544 16.3647 67.0038 17.3552 66.4375 18.8408C66.5508 18.9759 66.664 19.0884 66.7999 19.1785Z" fill="#011635"/>
<path d="M72.4181 12.0431C74.2754 13.5062 74.6379 16.5226 73.1656 18.3684C71.7159 20.2367 68.6807 20.6194 66.8007 19.1788C64.9207 17.7381 64.4903 14.7443 65.9173 12.8534C67.3443 10.9851 70.4248 10.4674 72.4181 12.0431Z" stroke="#011635" stroke-width="1.2" stroke-miterlimit="10" stroke-linecap="round" stroke-linejoin="round"/>
</svg>
