<svg width="170" height="108" viewBox="0 0 170 108" fill="none" xmlns="http://www.w3.org/2000/svg">
<g clip-path="url(#clip0_26337_52164)">
<path d="M21.932 40.0156H14.4686C14.0859 40.0156 13.7852 40.3163 13.7852 40.7264V44.9092C13.7852 45.2919 14.0859 45.62 14.4686 45.62H17.5032L20.0456 47.4516V45.7293L21.932 45.702C22.3147 45.702 22.6154 45.3739 22.6154 44.9912V40.7264C22.6154 40.3437 22.3147 40.0156 21.932 40.0156Z" stroke="#EBEFF2" stroke-width="0.420381" stroke-miterlimit="10" stroke-linecap="round" stroke-linejoin="round"/>
<path d="M4.13415 80.2575C4.13415 81.1323 3.45069 81.8431 2.57586 81.8431C1.72837 81.8431 1.01758 81.1323 1.01758 80.2575C1.01758 79.3827 1.70104 78.6719 2.57586 78.6719C3.45069 78.6992 4.13415 79.3827 4.13415 80.2575Z" stroke="#EBEFF2" stroke-width="0.420381" stroke-miterlimit="10" stroke-linecap="round" stroke-linejoin="round"/>
<path d="M167.371 32.6886C168.518 32.6886 169.448 31.7462 169.448 30.5836C169.448 29.421 168.518 28.4785 167.371 28.4785C166.223 28.4785 165.293 29.421 165.293 30.5836C165.293 31.7462 166.223 32.6886 167.371 32.6886Z" stroke="#EBEFF2" stroke-width="0.420381" stroke-miterlimit="10" stroke-linecap="round" stroke-linejoin="round"/>
<path d="M95.9917 2.31618C95.9917 2.94496 95.4723 3.46439 94.8709 3.46439C94.2421 3.46439 93.75 2.94496 93.75 2.31618C93.75 1.6874 94.2694 1.16797 94.8709 1.16797C95.4723 1.16797 95.9917 1.66006 95.9917 2.31618Z" stroke="#EBEFF2" stroke-width="0.420381" stroke-miterlimit="10" stroke-linecap="round" stroke-linejoin="round"/>
<path d="M167.371 84.6599C167.371 85.2887 166.851 85.8081 166.25 85.8081C165.621 85.8081 165.129 85.2887 165.129 84.6599C165.129 84.0312 165.648 83.5117 166.25 83.5117C166.879 83.5117 167.371 84.0312 167.371 84.6599Z" stroke="#EBEFF2" stroke-width="0.420381" stroke-miterlimit="10" stroke-linecap="round" stroke-linejoin="round"/>
<path d="M8.83547 12.1035H6.48438V14.4819H8.83547V12.1035Z" stroke="#EBEFF2" stroke-width="0.420381" stroke-miterlimit="10" stroke-linecap="round" stroke-linejoin="round"/>
<path d="M35.5463 32.4971H24.8296C23.6268 32.4971 22.6426 31.5129 22.6426 30.3101V19.7301C22.6426 18.7733 23.408 18.0078 24.3649 18.0078H35.5736C36.5304 18.0078 37.2959 18.7733 37.2959 19.7301V30.7748C37.2686 31.7316 36.5031 32.4971 35.5463 32.4971Z" fill="white"/>
<path d="M28.9863 27.8764C30.2165 27.9037 31.4468 27.9037 32.5676 27.849C32.923 27.8217 33.2238 27.2476 32.7863 27.0836C32.9777 27.0016 33.1417 26.8922 33.2238 26.7008C33.3058 26.5095 33.1964 26.2361 33.005 26.2087C33.4425 26.3181 33.6065 25.6346 33.2784 25.4159C33.4425 25.2792 33.6065 25.0605 33.6338 24.8418C33.6612 24.6231 33.5792 24.3497 33.3878 24.2404C33.2511 24.1584 33.0871 24.1584 32.9504 24.1584C32.4309 24.1584 31.9389 24.1584 31.4194 24.1584C31.5561 23.3656 31.6108 22.4907 31.2007 21.8073C31.0914 21.5886 30.7633 21.3425 30.4899 21.5066C30.2439 21.6706 30.3259 22.026 30.3259 22.272C30.3806 23.2562 29.8065 24.2677 28.9316 24.7325C28.9316 24.6778 28.9863 26.7828 28.9863 27.8764Z" fill="#109138"/>
<path d="M28.5485 24.6777H26.6895V27.849H28.5485V24.6777Z" fill="#109138"/>
<path d="M143.56 21.2614H129.125V10.7088C129.125 10.1073 129.617 9.61523 130.219 9.61523H143.532C144.134 9.61523 144.626 10.1073 144.626 10.7088V20.1678C144.653 20.7693 144.161 21.2614 143.56 21.2614Z" fill="#FFB64D"/>
<path d="M129.125 17.7617V23.2294L133.8 17.7617H129.125Z" fill="#FFB64D"/>
<path d="M131.996 15.4922H142.057" stroke="white" stroke-width="0.277375" stroke-miterlimit="10"/>
<path d="M131.996 13.168H142.057" stroke="white" stroke-width="0.277375" stroke-miterlimit="10"/>
<path d="M131.996 17.4883H135.55" stroke="white" stroke-width="0.277375" stroke-miterlimit="10"/>
<path d="M153.402 55.9523H144.681C143.506 55.9523 142.576 54.9954 142.576 53.8472C142.576 52.6717 143.533 51.7422 144.681 51.7422H153.402C154.578 51.7422 155.507 52.699 155.507 53.8472C155.507 54.9954 154.578 55.9523 153.402 55.9523Z" fill="#3792E3"/>
<path d="M146.746 54.4097C147.056 54.3437 147.254 54.0387 147.188 53.7286C147.122 53.4185 146.817 53.2206 146.507 53.2867C146.197 53.3527 145.999 53.6577 146.065 53.9678C146.131 54.2779 146.436 54.4758 146.746 54.4097Z" fill="white"/>
<path d="M149.601 53.8475C149.601 54.1483 149.355 54.4217 149.027 54.4217C148.727 54.4217 148.453 54.1756 148.453 53.8475C148.453 53.5468 148.699 53.2734 149.027 53.2734C149.355 53.2734 149.601 53.5195 149.601 53.8475Z" fill="white"/>
<path d="M152.008 53.8202C152.008 54.1209 151.762 54.3943 151.433 54.3943C151.133 54.3943 150.859 54.1483 150.859 53.8202C150.859 53.5195 151.105 53.2461 151.433 53.2461C151.762 53.2734 152.008 53.5195 152.008 53.8202Z" fill="white"/>
<path d="M122.319 44.2812L112.86 52.182C111.411 53.3849 111.165 55.5446 112.313 57.0482C113.407 58.4972 115.402 58.8799 116.961 57.9504L126.83 52.018L122.319 44.2812Z" fill="#F49A82"/>
<path d="M123.056 42.094L119.338 45.3199L126.254 53.9862L128.988 51.9085C129.836 51.2523 130.109 50.1041 129.644 49.1746L126.528 42.7775C125.872 41.4652 124.177 41.1372 123.056 42.094Z" fill="#098245"/>
<path d="M116.194 51.5264L100.939 47.0156L100.502 51.3351L113.624 58.1423C115.374 58.9351 117.452 58.197 118.299 56.4747C119.256 54.5063 118.245 52.1826 116.194 51.5264Z" fill="#F49A82"/>
<path d="M101.595 46.4135C100.939 45.4293 100.119 44.2811 99.7638 43.8164C99.5724 43.543 99.217 43.4609 98.889 43.5703C98.5062 43.707 98.3149 44.1171 98.4516 44.4998L98.9163 45.6207L95.0889 43.9257C94.8156 43.789 94.4602 43.871 94.2961 44.1444C94.1048 44.4451 94.1868 44.8279 94.4875 45.0192L95.0616 45.4566L94.4602 45.1833C94.1868 45.0739 93.8861 45.1559 93.722 45.402C93.558 45.6754 93.6674 46.0581 93.9407 46.1948L94.3235 46.4135C93.9681 46.3041 93.64 46.3862 93.5307 46.6322C93.394 46.9056 93.5033 47.2063 93.7767 47.343L94.3235 47.589C93.7767 47.343 93.558 47.5617 93.476 47.7531C93.3666 47.9991 93.476 48.2998 93.722 48.4365L96.1005 50.0768C96.6199 50.4322 97.1667 50.7056 97.7681 50.897C98.5883 51.143 99.7365 51.4164 100.502 51.3617L101.814 48.9013C101.842 48.8739 102.662 47.9718 101.595 46.4135Z" fill="#FFAB91"/>
<path d="M109.797 99.2019V21.8891V20.7956C109.797 17.1596 106.845 14.1797 103.181 14.1797H68.817C65.1537 14.1797 62.2012 17.1322 62.2012 20.7956V21.8891V100.295C62.2012 103.931 65.1537 106.911 68.817 106.911H103.181C105.915 106.911 108.239 105.271 109.25 102.92C109.606 102.127 109.797 101.252 109.797 100.323V99.2019Z" fill="#36474F"/>
<path d="M79.5056 18.6093C79.5056 18.9373 79.2596 19.1834 78.9315 19.1834C78.6035 19.1834 78.3574 18.9373 78.3574 18.6093C78.3574 18.2812 78.6035 18.0352 78.9315 18.0352C79.2322 18.0352 79.5056 18.3085 79.5056 18.6093Z" fill="white"/>
<path d="M91.9177 19.156H81.1737C80.873 19.156 80.627 18.91 80.627 18.6093C80.627 18.3085 80.873 18.0625 81.1737 18.0625H91.9177C92.2184 18.0625 92.4644 18.3085 92.4644 18.6093C92.4644 18.91 92.2184 19.156 91.9177 19.156Z" fill="white"/>
<path d="M86.0132 104.452C87.2664 104.452 88.2823 103.436 88.2823 102.183C88.2823 100.93 87.2664 99.9141 86.0132 99.9141C84.76 99.9141 83.7441 100.93 83.7441 102.183C83.7441 103.436 84.76 104.452 86.0132 104.452Z" fill="white"/>
<path d="M107.337 22.4629H64.6621V97.5066H107.337V22.4629Z" fill="white"/>
<path d="M72.9174 45.2363L73.8742 47.15L75.9792 47.4507L74.4483 48.9543L74.8037 51.0594L72.9174 50.0752L71.031 51.0594L71.3864 48.9543L69.8555 47.4507L71.9605 47.15L72.9174 45.2363Z" fill="#FFB64D"/>
<path d="M81.4193 45.2363L82.3761 47.15L84.5085 47.4507L82.9776 48.9543L83.333 51.0594L81.4193 50.0752L79.533 51.0594L79.8884 48.9543L78.3574 47.4507L80.4898 47.15L81.4193 45.2363Z" fill="#FFB64D"/>
<path d="M89.9486 45.2363L90.9055 47.15L93.0105 47.4507L91.4796 48.9543L91.835 51.0594L89.9486 50.0752L88.0623 51.0594L88.4177 48.9543L86.8867 47.4507L88.9918 47.15L89.9486 45.2363Z" fill="#FFB64D"/>
<path d="M98.4506 45.2363L99.4074 47.15L101.512 47.4507L99.9815 48.9543L100.364 51.0594L98.4506 50.0752L96.5642 51.0594L96.9196 48.9543L95.3887 47.4507L97.5211 47.15L98.4506 45.2363Z" fill="#DEE7EC"/>
<path d="M90.3882 58.9876H70.1578C69.1463 58.9876 68.3262 58.1674 68.3262 57.1559C68.3262 56.1444 69.1463 55.3242 70.1578 55.3242H90.3882C91.3997 55.3242 92.2199 56.1444 92.2199 57.1559C92.1925 58.1674 91.3724 58.9876 90.3882 58.9876Z" stroke="#DEE7EC" stroke-width="0.408352" stroke-miterlimit="10"/>
<path d="M101.46 90.2347H70.2945C69.2283 90.2347 68.3809 89.3598 68.3809 88.321V83.8375C68.3809 82.7713 69.2557 81.9238 70.2945 81.9238H101.46C102.526 81.9238 103.374 82.7987 103.374 83.8375V88.321C103.401 89.3872 102.526 90.2347 101.46 90.2347Z" stroke="#DEE7EC" stroke-width="0.43457" stroke-miterlimit="10"/>
<path d="M70.5406 25.4158C70.5406 25.9353 70.1306 26.3453 69.6111 26.3453C69.0917 26.3453 68.6816 25.9353 68.6816 25.4158C68.6816 24.8964 69.0917 24.4863 69.6111 24.4863C70.1032 24.4863 70.5406 24.8964 70.5406 25.4158Z" fill="#FFB64D"/>
<path d="M73.6578 25.4158C73.6578 25.9353 73.2478 26.3453 72.7283 26.3453C72.2089 26.3453 71.7988 25.9353 71.7988 25.4158C71.7988 24.8964 72.2089 24.4863 72.7283 24.4863C73.2478 24.4863 73.6578 24.8964 73.6578 25.4158Z" fill="#FFB64D"/>
<path d="M76.7731 25.4158C76.7731 25.9353 76.363 26.3453 75.8436 26.3453C75.3241 26.3453 74.9141 25.9353 74.9141 25.4158C74.9141 24.8964 75.3241 24.4863 75.8436 24.4863C76.363 24.4863 76.7731 24.8964 76.7731 25.4158Z" fill="#0C9D58"/>
<path d="M64.6621 28.123H107.419" stroke="#DEE7EC" stroke-width="0.408352" stroke-miterlimit="10"/>
<path d="M82.9785 33.4258H100.065" stroke="#DEE7EC" stroke-width="0.408352" stroke-miterlimit="10"/>
<path d="M82.9785 36.8438H100.065" stroke="#DEE7EC" stroke-width="0.408352" stroke-miterlimit="10"/>
<path d="M82.9785 40.2344H88.8016" stroke="#DEE7EC" stroke-width="0.408352" stroke-miterlimit="10"/>
<path d="M101.624 78.206H70.4586C69.3924 78.206 68.5449 77.3311 68.5449 76.2923V64.9195C68.5449 63.8533 69.4197 63.0059 70.4586 63.0059H101.624C102.69 63.0059 103.538 63.8807 103.538 64.9195V76.2649C103.538 77.3311 102.69 78.206 101.624 78.206Z" fill="#FFB64D"/>
<path d="M75.5169 74.1588C77.4344 74.1588 78.9889 72.6043 78.9889 70.6868C78.9889 68.7693 77.4344 67.2148 75.5169 67.2148C73.5994 67.2148 72.0449 68.7693 72.0449 70.6868C72.0449 72.6043 73.5994 74.1588 75.5169 74.1588Z" fill="white"/>
<path d="M81.1211 67.8438H99.7658" stroke="#FDFEFF" stroke-width="0.408352" stroke-miterlimit="10" stroke-linecap="round" stroke-linejoin="round"/>
<path d="M81.1211 70.4414H99.7658" stroke="#FDFEFF" stroke-width="0.408352" stroke-miterlimit="10" stroke-linecap="round" stroke-linejoin="round"/>
<path d="M81.1211 73.0664H84.5931" stroke="#FDFEFF" stroke-width="0.408352" stroke-miterlimit="10" stroke-linecap="round" stroke-linejoin="round"/>
<path d="M123.684 96.1679L123.93 100.241H128.659L128.413 95.9492L123.684 96.1679Z" fill="#FFAB91"/>
<path d="M123.738 97.3437L128.522 97.7264L128.468 96.9062L123.711 96.8789L123.738 97.3437Z" fill="#F49A82"/>
<path d="M123.738 97.3437L128.522 97.7264L128.468 96.9062L123.711 96.8789L123.738 97.3437Z" fill="#F49A82"/>
<path d="M122.481 99.7227H129.671L130.655 106.776H117.67C116.932 106.776 116.686 105.819 117.314 105.436L122.645 102.402L122.481 99.7227Z" fill="#0C9D58"/>
<path d="M117.178 105.52H130.355" stroke="black" stroke-width="0.233196" stroke-miterlimit="10"/>
<path d="M120.705 103.523L122.373 104.18" stroke="black" stroke-width="0.233196" stroke-miterlimit="10"/>
<path d="M121.906 102.867L123.601 103.523" stroke="black" stroke-width="0.233196" stroke-miterlimit="10"/>
<path d="M128.222 102.976C128.222 103.522 127.785 103.932 127.265 103.932C126.719 103.932 126.309 103.495 126.309 102.976C126.309 102.429 126.746 102.019 127.265 102.019C127.785 101.991 128.222 102.429 128.222 102.976Z" stroke="black" stroke-width="0.233196" stroke-miterlimit="10"/>
<path d="M120.541 61.3672L122.127 96.8523L130.082 96.907L128.961 62.2967L120.541 61.3672Z" fill="#736356"/>
<path d="M132.979 96.1132L133.471 100.187H138.2L137.708 95.8945L132.979 96.1132Z" fill="#FFAB91"/>
<path d="M133.115 97.3437L137.927 97.6991L137.817 96.8789H133.061L133.115 97.3437Z" fill="#F49A82"/>
<path d="M133.115 97.3437L137.927 97.6991L137.817 96.8789H133.061L133.115 97.3437Z" fill="#F49A82"/>
<path d="M132.05 99.668H139.24L140.47 106.721H127.484C126.746 106.721 126.5 105.764 127.129 105.382L132.46 102.347L132.05 99.668Z" fill="#0C9D58"/>
<path d="M126.965 105.465H140.142" stroke="black" stroke-width="0.233196" stroke-miterlimit="10"/>
<path d="M130.492 103.469L132.187 104.098" stroke="black" stroke-width="0.233196" stroke-miterlimit="10"/>
<path d="M131.721 102.812L133.388 103.469" stroke="black" stroke-width="0.233196" stroke-miterlimit="10"/>
<path d="M138.037 102.894C138.037 103.441 137.599 103.851 137.08 103.851C136.533 103.851 136.123 103.414 136.123 102.894C136.123 102.375 136.56 101.938 137.08 101.938C137.599 101.938 138.037 102.375 138.037 102.894Z" stroke="black" stroke-width="0.233196" stroke-miterlimit="10"/>
<path d="M135.713 60.9843L139.321 96.8795H131.229L124.859 60.4648L135.713 60.9843Z" fill="#736356"/>
<path d="M131.311 96.8805L125.761 67.7652L123.41 65.7969" stroke="#554647" stroke-width="0.281038" stroke-miterlimit="10"/>
<path d="M125.954 40.7538C125.954 40.7538 121.689 40.4804 121.443 46.4948C121.197 52.5093 120.377 61.6129 120.377 61.6129L136.452 62.7611L135.714 48.9826C135.714 49.01 135.413 38.7581 125.954 40.7538Z" fill="#0C9D58"/>
<path d="M105.04 36.2969L106.571 39.4134L110.016 39.9055L107.528 42.3386L108.129 45.7833L105.04 44.143L101.951 45.7833L102.552 42.3386L100.064 39.9055L103.509 39.4134L105.04 36.2969Z" fill="#FFB64D"/>
<path d="M122.153 56.1993L109.277 46.877L107.445 50.8137L117.56 61.585C118.955 62.9245 121.142 62.8972 122.509 61.5576C124.04 60.054 123.876 57.5116 122.153 56.1993Z" fill="#FFAB91"/>
<path d="M110.07 46.5489C109.769 45.4007 109.386 44.0612 109.222 43.4871C109.113 43.159 108.812 42.9676 108.484 42.9676C108.074 42.9676 107.746 43.2957 107.746 43.7058L107.828 44.9086L104.793 42.0381C104.575 41.8194 104.219 41.7921 103.973 41.9834C103.7 42.2021 103.645 42.5849 103.864 42.8583L104.274 43.4597L103.782 42.995C103.563 42.8036 103.235 42.7763 103.016 42.9403C102.77 43.159 102.743 43.5144 102.962 43.7604L103.262 44.0885C102.962 43.8698 102.634 43.8424 102.442 44.0338C102.224 44.2525 102.224 44.5806 102.442 44.7993L102.88 45.2094C102.442 44.7993 102.169 44.936 102.032 45.0727C101.841 45.264 101.841 45.5921 102.032 45.7835L103.727 48.1346C104.083 48.654 104.547 49.0914 105.039 49.4468C105.723 49.9389 106.734 50.595 107.445 50.7864L109.496 48.9C109.468 48.9274 110.534 48.3806 110.07 46.5489Z" fill="#FFAB91"/>
<path d="M125.324 47.2051L117.56 56.7735C116.357 58.2498 116.549 60.3821 117.943 61.6397C119.282 62.8426 121.333 62.8426 122.672 61.6397L131.229 53.9303L125.324 47.2051Z" fill="#FFAB91"/>
<path d="M123.465 49.502L128.85 56.0358L129.971 55.079L123.465 49.502Z" fill="#F49A82"/>
<path d="M125.624 44.8808L122.59 48.7629L131.037 55.9528L133.306 53.383C134.017 52.5902 134.045 51.4147 133.416 50.5672L129.124 44.9082C128.276 43.7599 126.527 43.7326 125.624 44.8808Z" fill="#0C9D58"/>
<path d="M123.492 49.4464L122.781 48.927L125.761 45.0723" stroke="#098245" stroke-width="0.343643" stroke-miterlimit="10"/>
<path d="M129.971 55.0784C129.971 55.0784 134.892 50.9777 135.11 46.877" stroke="#098245" stroke-width="0.343643" stroke-miterlimit="10"/>
<path d="M128.96 40.5342C128.96 40.3975 128.932 40.2881 128.878 40.1515L127.183 35.668L122.754 36.9802L123.629 41.4637C124.285 43.6508 128.932 40.5342 128.96 40.5342Z" fill="#FFAB91"/>
<path d="M127.293 33.2084C127.293 33.2084 128.796 28.5608 125.789 28.8616C123.985 29.0529 123.356 28.6155 121.059 28.3968C118.38 28.1508 115.701 31.7321 120.021 33.5638L125.406 30.9119L127.293 33.2084Z" fill="#4D2D3C"/>
<path d="M122.29 34.9846C122.427 35.6954 121.989 36.4062 121.251 36.5429C120.54 36.6796 119.83 36.2421 119.693 35.504C119.556 34.7932 119.994 34.0824 120.732 33.9457C121.415 33.809 122.126 34.2738 122.29 34.9846Z" fill="#F49A82"/>
<path d="M123.355 40.1245L126.417 37.4453L122.973 38.1014L123.355 40.1245Z" fill="#4D2D3C"/>
<path d="M125.298 38.4036L123.931 38.7043C122.318 39.0323 120.76 37.9935 120.486 36.3805L119.912 33.0453C119.611 31.3229 120.732 29.6826 122.427 29.3272C124.177 28.9718 126.2 30.0107 126.555 31.7604L127.184 35.7244C127.375 36.9546 126.555 38.1302 125.298 38.4036Z" fill="#FFAB91"/>
<path d="M126.227 34.3007L127.375 36.187L127.211 33.918L126.227 34.3007Z" fill="#4D2D3C"/>
<path d="M122.07 35.4512L122.098 36.1346L122.508 36.0526" stroke="#4D2D3C" stroke-width="0.172122" stroke-miterlimit="10" stroke-linecap="round" stroke-linejoin="round"/>
<path d="M123.493 33.2366C123.493 33.2366 122.782 33.2639 122.837 33.6466C122.837 33.6466 122.892 33.8927 123.52 33.838C124.149 33.7833 124.286 33.7013 124.313 33.4553C124.313 33.2092 123.821 33.1819 123.493 33.2366Z" fill="#4D2D3C"/>
<path d="M120.813 33.7559C120.813 33.7559 121.387 33.5918 121.497 33.9199C121.497 33.9199 121.579 34.1659 121.059 34.3026C120.567 34.4393 120.376 34.3846 120.294 34.1933C120.184 34.0019 120.54 33.8105 120.813 33.7559Z" fill="#4D2D3C"/>
<path d="M122.098 36.6542L124.066 36.2441C124.066 36.2441 124.203 36.9276 123.082 37.1736C122.316 37.3377 122.098 36.6542 122.098 36.6542Z" fill="white"/>
<path d="M121.414 34.9036C121.442 35.0676 121.332 35.2043 121.196 35.2316C121.032 35.259 120.895 35.1496 120.867 35.0129C120.84 34.8489 120.95 34.7122 121.086 34.6849C121.223 34.6575 121.414 34.7395 121.414 34.9036Z" fill="#4D2D3C"/>
<path d="M123.629 34.5208C123.656 34.6848 123.547 34.8215 123.41 34.8488C123.246 34.8762 123.11 34.7668 123.082 34.6301C123.055 34.4661 123.164 34.3294 123.301 34.3021C123.465 34.2747 123.602 34.3567 123.629 34.5208Z" fill="#4D2D3C"/>
<path d="M126.692 33.9189C126.692 33.9189 124.231 33.3722 124.505 31.3491C124.505 31.3491 120.896 30.4743 119.803 32.5247L118.846 29.2441L123.603 29.0254L127.02 29.5448L127.293 33.2082L126.692 33.9189Z" fill="#4D2D3C"/>
<path d="M128.577 33.6721C128.714 34.3829 128.276 35.0937 127.538 35.2304C126.827 35.3671 126.117 34.9296 125.98 34.1915C125.843 33.4534 126.281 32.7699 127.019 32.6332C127.73 32.4965 128.44 32.9613 128.577 33.6721Z" fill="#FFAB91"/>
<path d="M126.909 34.4373C126.909 34.4373 126.717 33.5078 127.647 33.4531" stroke="#4D2D3C" stroke-width="0.172122" stroke-miterlimit="10" stroke-linecap="round" stroke-linejoin="round"/>
<path d="M54.9849 99.668H48.3417L47.6309 106.721H58.4295C59.1676 106.721 59.4137 105.764 58.7849 105.382L54.8208 102.347L54.9849 99.668Z" fill="#0C9D58"/>
<path d="M58.9763 105.465H47.959" stroke="black" stroke-width="0.233196" stroke-miterlimit="10"/>
<path d="M56.6521 103.715L55.668 104.098" stroke="black" stroke-width="0.233196" stroke-miterlimit="10"/>
<path d="M55.6677 102.977L54.4375 103.469" stroke="black" stroke-width="0.233196" stroke-miterlimit="10"/>
<path d="M49.8184 102.894C49.8184 103.441 50.2558 103.851 50.7752 103.851C51.322 103.851 51.732 103.414 51.732 102.894C51.732 102.375 51.2946 101.938 50.7752 101.938C50.2558 101.938 49.8184 102.375 49.8184 102.894Z" stroke="black" stroke-width="0.233196" stroke-miterlimit="10"/>
<path d="M54.1377 96.1132L53.8916 100.187H49.1621L49.3808 95.8945L54.1377 96.1132Z" fill="#FFAB91"/>
<path d="M49.2988 97.5898L54.0284 97.9452L54.083 97.1523H49.3262L49.2988 97.5898Z" fill="#F49A82"/>
<path d="M51.8946 61.7773L55.9407 78.071C56.3508 79.6566 56.4054 80.176 56.3234 81.8163L55.3392 97.1531H47.8485V81.2969L42.4902 63.773L51.8946 61.7773Z" fill="#736356"/>
<path d="M31.199 96.1152L30.3516 100.189H35.0811L35.9559 95.8965L31.199 96.1152Z" fill="#FFAB91"/>
<path d="M30.8984 97.6191L35.5186 97.9744L35.6826 97.1543H30.9805L30.8984 97.6191Z" fill="#F49A82"/>
<path d="M29.8054 99.6699H35.9019L34.9724 106.723H24.9666C24.2284 106.723 23.9824 105.766 24.6112 105.384L28.8486 102.349L29.8054 99.6699Z" fill="#0C9D58"/>
<path d="M24.4746 105.465H35.1366" stroke="black" stroke-width="0.233196" stroke-miterlimit="10"/>
<path d="M26.8809 103.77L27.783 104.098" stroke="black" stroke-width="0.233196" stroke-miterlimit="10"/>
<path d="M27.8926 103.031L28.9861 103.469" stroke="black" stroke-width="0.233196" stroke-miterlimit="10"/>
<path d="M33.6324 102.894C33.6324 103.441 33.195 103.851 32.6756 103.851C32.1562 103.851 31.7188 103.414 31.7188 102.894C31.7188 102.375 32.1562 101.938 32.6756 101.938C33.195 101.938 33.6324 102.375 33.6324 102.894Z" stroke="black" stroke-width="0.233196" stroke-miterlimit="10"/>
<path d="M38.0882 61.7773L29.8867 97.1531H37.6781L49.625 61.7773H38.0882Z" fill="#736356"/>
<path d="M45.5508 73.7802L46.781 70.3356L49.4055 68.7227" stroke="#554647" stroke-width="0.281038" stroke-miterlimit="10"/>
<path d="M62.2535 53.0562L66.1902 41.1914L69.1701 42.859L67.6392 54.3685C67.3658 55.8447 65.9442 56.8563 64.4679 56.6102C62.8003 56.3642 61.7614 54.6692 62.2535 53.0562Z" fill="#FFAB91"/>
<path d="M65.7526 39.7425C65.8347 38.6763 65.9714 37.3914 66.0534 36.872C66.108 36.5713 66.3267 36.3253 66.6275 36.2979C66.9829 36.2432 67.3383 36.4893 67.3929 36.8447L67.5023 37.9382L69.7987 34.9037C69.9627 34.6849 70.2635 34.6029 70.5095 34.7123C70.7829 34.849 70.8922 35.2044 70.7282 35.4778L70.4548 36.0792L70.8102 35.5871C70.9743 35.3684 71.2476 35.2864 71.4937 35.4231C71.7671 35.5598 71.8218 35.9152 71.6577 36.1612L71.439 36.5166C71.6851 36.2706 71.9858 36.1886 72.1771 36.3252C72.3959 36.4893 72.4505 36.79 72.3138 37.0087L71.9858 37.4461C72.3138 37.0087 72.5599 37.0907 72.7239 37.2001C72.9153 37.3641 72.97 37.6375 72.8333 37.8562L71.6851 40.2346C71.439 40.7541 71.111 41.2188 70.7009 41.6289C70.1541 42.1756 69.3613 42.9411 68.7325 43.2145L66.6001 41.8476C66.6548 41.7929 65.616 41.4649 65.7526 39.7425Z" fill="#FFAB91"/>
<path d="M56.0757 48.7383L65.3981 51.2807C66.8197 51.6635 67.6945 53.1124 67.3938 54.5613C67.093 55.9556 65.7808 56.8851 64.3592 56.7211L53.7246 55.1901L56.0757 48.7383Z" fill="#FFAB91"/>
<path d="M52.8775 47.1248L53.6156 47.3981L58.8919 48.5737L57.7984 56.7478L52.194 55.8457C51.3739 55.6543 50.7998 54.9435 50.8271 54.096L50.9638 48.519C50.9911 47.3708 51.7566 46.7967 52.8775 47.1248Z" fill="#0C9D58"/>
<path d="M58.7557 49.4766L59.5485 49.6953L57.8809 55.8191" fill="#F49A82"/>
<path d="M77.5644 41.3278H69.0622C68.1053 41.3278 67.3125 40.535 67.3125 39.5781V31.1853C67.3125 30.4471 67.9139 29.8184 68.6794 29.8184H77.5644C78.3025 29.8184 78.9313 30.4198 78.9313 31.1853V39.9609C78.904 40.7263 78.3025 41.3278 77.5644 41.3278Z" fill="#0C9D58"/>
<path d="M75.3228 34.0559C74.8034 33.5364 73.9559 33.5638 73.4638 34.0832L73.1358 34.4386L72.7804 34.1105C72.261 33.5911 71.4135 33.5911 70.9214 34.1379C70.4019 34.6573 70.4019 35.5048 70.9487 35.9969L72.2336 37.2544C72.4523 37.4458 72.6984 37.5825 72.9444 37.6098C73.3545 37.6645 73.7919 37.5552 74.0926 37.2271L75.3502 35.9422C75.8423 35.3954 75.8423 34.5753 75.3228 34.0559Z" fill="white"/>
<path d="M54.9556 52.4284L53.1513 65.2228L38.0879 61.8055C38.0879 61.8055 41.0951 48.1363 46.3987 46.0859L47.2462 46.2226L51.2923 46.9334C53.534 47.4802 54.9556 50.132 54.9556 52.4284Z" fill="#0C9D58"/>
<path d="M54.2168 49.4766C54.2168 49.4766 55.0643 51.691 54.4355 56.2291" stroke="#098245" stroke-width="0.343643" stroke-miterlimit="10"/>
<path d="M42.1343 53.5201L31.0349 56.5C29.6133 56.8827 28.1097 56.0899 27.645 54.6683C27.2076 53.3014 27.8637 51.8525 29.1486 51.2511L40.8494 46.7402L42.1343 53.5201Z" fill="#FFAB91"/>
<path d="M37.1035 48.1895L38.6345 54.4499L39.6186 54.1765L37.1035 48.1895Z" fill="#F49A82"/>
<path d="M33.0024 53.2187L37.5679 62.3497L34.8614 64.6188L28.0541 55.5152C27.6714 54.9957 27.4527 54.3396 27.5347 53.6835C27.6441 52.6446 28.3002 51.6605 29.2844 51.2504C30.8427 50.6489 32.6196 51.5784 33.0024 53.2187Z" fill="#FFAB91"/>
<path d="M39.919 61.9688C38.3608 62.3788 36.8571 63.0623 35.4629 63.9371C35.791 64.3198 36.1737 64.6752 36.5017 64.976C36.8845 65.3314 37.3492 65.6047 37.814 65.8235L40.0557 66.8076C40.2471 66.917 40.5205 66.8623 40.6572 66.6709C40.7665 66.5342 40.8212 66.2882 40.3838 66.0148L40.7939 66.2882C41.0126 66.4249 41.286 66.3429 41.4226 66.1515C41.5593 65.9601 41.45 65.6868 41.2313 65.4954L41.5593 65.6868C41.8054 65.8235 42.1061 65.7414 42.2155 65.4954C42.3248 65.2767 42.2428 65.0033 42.0514 64.8666L41.5867 64.5386L42.1608 64.7573C42.4068 64.8939 42.7349 64.7846 42.8716 64.5112C42.9809 64.2925 42.8716 63.9918 42.6802 63.8551L39.919 61.9688Z" fill="#FFAB91"/>
<path d="M38.306 65.3035C38.306 65.3035 37.1851 67.2446 34.8613 64.6201L37.2944 62.0776L39.6729 60.7107C39.8916 60.574 40.165 60.6287 40.3563 60.82C40.5204 61.0114 40.5477 61.2575 40.411 61.4762L40.0009 62.1596" fill="#FFAB91"/>
<path d="M39.919 61.9688C38.3608 62.3788 36.8571 63.0623 35.4629 63.9371C35.791 64.3198 36.1737 64.6752 36.5017 64.976C36.8845 65.3314 37.3492 65.6047 37.814 65.8235L40.0557 66.8076C40.2471 66.917 40.5205 66.8623 40.6572 66.6709C40.7665 66.5342 40.8212 66.2882 40.3838 66.0148L40.7939 66.2882C41.0126 66.4249 41.286 66.3429 41.4226 66.1515C41.5593 65.9601 41.45 65.6868 41.2313 65.4954L41.5593 65.6868C41.8054 65.8235 42.1061 65.7414 42.2155 65.4954C42.3248 65.2767 42.2428 65.0033 42.0514 64.8666L41.5867 64.5386L42.1608 64.7573C42.4068 64.8939 42.7349 64.7846 42.8716 64.5112C42.9809 64.2925 42.8716 63.9918 42.6802 63.8551L39.919 61.9688Z" fill="#FFAB91"/>
<path d="M38.306 65.3035C38.306 65.3035 37.1851 67.2446 34.8613 64.6201L37.2944 62.0776L39.6729 60.7107C39.8916 60.574 40.165 60.6287 40.3563 60.82C40.5204 61.0114 40.5477 61.2575 40.411 61.4762L40.0009 62.1596" fill="#FFAB91"/>
<path d="M36.8848 47.5881L40.1927 55.4342L45.8791 53.3018C48.1482 52.4543 49.187 49.8571 48.1482 47.6701C47.246 45.7837 45.1136 44.8542 43.1179 45.5103L36.8848 47.5881Z" fill="#0C9D58"/>
<path d="M40.084 55.187L45.907 52.8633" stroke="#098245" stroke-width="0.343643" stroke-miterlimit="10"/>
<path d="M56.0785 35.614C55.8051 35.532 51.1302 33.4816 48.9978 35.9147C47.2482 37.8831 47.5489 41.7924 50.2007 43.5421C52.7159 45.2371 53.8641 36.0514 53.8641 36.0514L56.0785 35.614Z" fill="#4D2D3C"/>
<path d="M53.0164 47.1788L53.6999 44.8003L50.9661 42.4766L48.533 46.4133L47.2481 46.2493C47.2481 46.2493 47.2207 49.2018 50.9934 49.7212C54.11 50.1586 53.5905 47.4248 53.5905 47.4248L53.0164 47.1788Z" fill="#FFAB91"/>
<path d="M49.0092 42.1472C49.8495 40.5251 49.2158 38.5288 47.5937 37.6884C45.9716 36.848 43.9753 37.4818 43.1349 39.1039C42.2945 40.726 42.9283 42.7223 44.5504 43.5627C46.1725 44.4031 48.1688 43.7693 49.0092 42.1472Z" fill="#4D2D3C"/>
<path d="M54.9572 41.1093C54.7385 41.8475 55.1485 42.6129 55.8867 42.8317C56.6248 43.0504 57.3903 42.6403 57.609 41.9022C57.8277 41.164 57.4176 40.3985 56.6795 40.1798C55.9414 39.9611 55.1759 40.3712 54.9572 41.1093Z" fill="#F49A82"/>
<path d="M53.1538 46.7687L50.666 42.7773L53.8099 44.4997L53.1538 46.7687Z" fill="#4D2D3C"/>
<path d="M52.7153 45.0449C54.4376 45.455 56.1873 44.4161 56.5427 43.0218L57.4175 39.7139C57.8822 37.9643 56.8707 36.1599 55.1484 35.6132C53.3714 35.0664 51.1843 35.9959 50.6376 37.7729L49.9815 40.452C49.4347 42.5024 50.6649 44.4434 52.7153 45.0449Z" fill="#FFAB91"/>
<path d="M55.0663 41.5469L54.9843 42.367L54.5742 42.285" stroke="#4D2D3C" stroke-width="0.16988" stroke-miterlimit="10" stroke-linecap="round" stroke-linejoin="round"/>
<path d="M53.6455 39.55C53.6455 39.55 54.3563 39.6593 54.3017 39.9327C54.3017 39.9327 54.247 40.1241 53.6455 40.0147C53.0441 39.9054 52.8801 39.8233 52.8801 39.632C52.8527 39.468 53.3175 39.468 53.6455 39.55Z" fill="#4D2D3C"/>
<path d="M56.4062 40.2604C56.4062 40.2604 55.8594 40.069 55.75 40.315C55.75 40.315 55.6954 40.4791 56.1601 40.6431C56.6522 40.8071 56.8162 40.7798 56.8982 40.6431C57.0076 40.4791 56.6795 40.315 56.4062 40.2604Z" fill="#4D2D3C"/>
<path d="M55.7506 41.3831C55.6959 41.5471 55.8052 41.7111 55.9693 41.7385C56.1333 41.7932 56.2973 41.6838 56.3247 41.5198C56.3793 41.3557 56.27 41.1917 56.1059 41.1644C55.9419 41.137 55.7779 41.2464 55.7506 41.3831Z" fill="#4D2D3C"/>
<path d="M53.317 40.7532C53.2623 40.9172 53.3716 41.0812 53.5357 41.1086C53.6997 41.1633 53.8637 41.0539 53.8911 40.8899C53.9457 40.7258 53.8364 40.5618 53.6724 40.5345C53.5357 40.5071 53.3716 40.5892 53.317 40.7532Z" fill="#4D2D3C"/>
<path d="M55.0937 42.8866L53.1526 42.4492C53.1526 42.4492 52.9886 43.1327 54.1368 43.3787C54.8749 43.5427 55.0937 42.8866 55.0937 42.8866Z" fill="white"/>
<path d="M53.0169 37.9653C52.2787 39.9336 50.7751 40.1797 50.7751 40.1797L49.4355 37.6372C49.4355 37.6646 53.3996 36.9538 53.0169 37.9653Z" fill="#4D2D3C"/>
<path d="M48.424 39.6875C48.2053 40.4256 48.6153 41.1911 49.3535 41.4098C50.0916 41.6285 50.8571 41.2184 51.0758 40.4803C51.2945 39.7421 50.8844 38.9767 50.1463 38.758C49.4082 38.5393 48.6427 38.9493 48.424 39.6875Z" fill="#FFAB91"/>
<path d="M50.0917 40.617C50.0917 40.617 50.3924 39.6601 49.4082 39.5234" stroke="#4D2D3C" stroke-width="0.179339" stroke-miterlimit="10" stroke-linecap="round" stroke-linejoin="round"/>
<path d="M56.7624 35.9708C54.712 35.4514 53.1811 34.5492 50.6933 36.0255L50.3105 37.6658C50.3105 37.6658 56.0789 40.0442 57.7192 39.8528L58.2387 38.4313C58.4574 37.9665 58.184 37.5838 58.02 37.0917L58.2933 36.9823C58.0746 36.4082 57.3638 36.1348 56.7624 35.9708Z" fill="#4D2D3C"/>
<path d="M52.25 34.7656C52.25 34.7656 61.0529 34.8476 57.6903 39.8779L53.5896 36.9254L52.25 34.7656Z" fill="#4D2D3C"/>
<path d="M7.66016 106.912H159.36" stroke="#36474F" stroke-width="0.249599" stroke-miterlimit="10"/>
</g>
<defs>
<clipPath id="clip0_26337_52164">
<rect width="168.841" height="106.1" fill="white" transform="translate(0.826172 0.949219)"/>
</clipPath>
</defs>
</svg>
