<svg width="48" height="49" viewBox="0 0 48 49" fill="none" xmlns="http://www.w3.org/2000/svg">
<path d="M34.2277 26.8238C30.7633 26.8238 27.9554 29.6612 27.9554 33.1619C27.9554 36.6627 30.7633 39.5 34.2277 39.5C37.6921 39.5 40.5 36.6627 40.5 33.1619C40.5 29.6612 37.6921 26.8238 34.2277 26.8238ZM37.0047 32.8919L33.9422 35.3842C33.7596 35.5331 33.5312 35.6138 33.2982 35.6138C33.2594 35.6138 33.2206 35.6115 33.1806 35.6069C32.9077 35.5758 32.6588 35.435 32.4898 35.2158L31.2863 33.665C30.9357 33.2127 31.0145 32.5608 31.4598 32.2065C31.9086 31.8523 32.5515 31.9319 32.9031 32.3819L33.4638 33.1054L35.7156 31.2719C36.1586 30.9108 36.8049 30.9846 37.1612 31.43C37.5174 31.8777 37.4478 32.5319 37.0047 32.8919Z" fill="#1079E0"/>
<path d="M26.2426 33.1631C26.2426 28.7139 29.8247 25.0942 34.2277 25.0942C35.6904 25.0942 37.0584 25.5004 38.2391 26.1973V15.8115C38.2391 13.1923 36.1381 11.0692 33.546 11.0692H31.0796V10.5385C31.0796 9.96154 30.6114 9.5 30.0519 9.5C29.481 9.5 29.0242 9.96154 29.0242 10.5385V11.0692H16.7263V10.5385C16.7263 9.96154 16.2695 9.5 15.6986 9.5C15.1277 9.5 14.6709 9.96154 14.6709 10.5385V11.0692H12.1931C9.60104 11.0692 7.5 13.1923 7.5 15.8115V32.8192C7.5 35.4385 9.60104 37.5615 12.1931 37.5615H27.5421C26.7234 36.2946 26.2426 34.7854 26.2426 33.1631ZM30.2586 20.6854C30.914 20.6854 31.445 21.2219 31.445 21.8842C31.445 22.5465 30.914 23.0831 30.2586 23.0831C29.6031 23.0831 29.0722 22.5465 29.0722 21.8842C29.0722 21.2219 29.6031 20.6854 30.2586 20.6854ZM15.4862 29.615C14.8308 29.615 14.2998 29.0785 14.2998 28.4162C14.2998 27.7538 14.8308 27.2173 15.4862 27.2173C16.1417 27.2173 16.6726 27.7538 16.6726 28.4162C16.6726 29.0785 16.1417 29.615 15.4862 29.615ZM15.4862 23.0831C14.8308 23.0831 14.2998 22.5465 14.2998 21.8842C14.2998 21.2219 14.8308 20.6854 15.4862 20.6854C16.1417 20.6854 16.6726 21.2219 16.6726 21.8842C16.6726 22.5465 16.1417 23.0831 15.4862 23.0831ZM22.873 29.615C22.2175 29.615 21.6866 29.0785 21.6866 28.4162C21.6866 27.7538 22.2175 27.2173 22.873 27.2173C23.5284 27.2173 24.0594 27.7538 24.0594 28.4162C24.0594 29.0785 23.5273 29.615 22.873 29.615ZM22.873 23.0831C22.2175 23.0831 21.6866 22.5465 21.6866 21.8842C21.6866 21.2219 22.2175 20.6854 22.873 20.6854C23.5284 20.6854 24.0594 21.2219 24.0594 21.8842C24.0594 22.5465 23.5273 23.0831 22.873 23.0831Z" fill="#1079E0"/>
</svg>
