<svg width="48" height="49" viewBox="0 0 48 49" fill="none" xmlns="http://www.w3.org/2000/svg">
<path d="M24.0012 37.3012C21.1147 37.3012 19.0284 37.3012 17.3493 37.0762C15.4595 36.8225 14.1842 36.2724 13.2053 35.2971C12.23 34.3218 11.6799 33.0429 11.4262 31.1531C11.2012 29.474 11.2012 27.3877 11.2012 24.5012C11.2012 21.6147 11.2012 19.5284 11.4262 17.8493C11.6799 15.9595 12.23 14.6842 13.2053 13.7053C14.1806 12.7265 15.4595 12.1799 17.3493 11.9262C19.0284 11.7012 21.1147 11.7012 24.0012 11.7012C26.8877 11.7012 28.974 11.7012 30.6531 11.9262C32.5429 12.1799 33.8182 12.73 34.7971 13.7053C35.7724 14.6806 36.3225 15.9595 36.5762 17.8493C36.8012 19.5284 36.8012 21.6147 36.8012 24.5012C36.8012 27.3877 36.8012 29.474 36.5762 31.1531C36.3225 33.0429 35.7724 34.3182 34.7971 35.2971C33.8218 36.2724 32.5429 36.8225 30.6531 37.0762C28.974 37.3012 26.8877 37.3012 24.0012 37.3012ZM24.0012 13.4874C18.6425 13.4874 15.9525 13.4874 14.4699 14.9699C12.9874 16.4525 12.9874 19.1425 12.9874 24.5012C12.9874 29.8598 12.9874 32.5499 14.4699 34.0325C15.9525 35.515 18.6425 35.515 24.0012 35.515C29.3598 35.515 32.0499 35.515 33.5325 34.0325C35.015 32.5499 35.015 29.8598 35.015 24.5012C35.015 19.1425 35.015 16.4525 33.5325 14.9699C32.0499 13.4874 29.3598 13.4874 24.0012 13.4874Z" fill="#1079E0"/>
<path d="M31.1457 31.941H26.3837C25.8907 31.941 25.4906 31.5409 25.4906 31.0479C25.4906 30.5549 25.8907 30.1548 26.3837 30.1548H31.1457C31.6387 30.1548 32.0388 30.5549 32.0388 31.0479C32.0388 31.5409 31.6387 31.941 31.1457 31.941ZM21.025 31.941C20.7964 31.941 20.5678 31.8553 20.3927 31.6802L19.2388 30.5263L18.0813 31.6802C17.7312 32.0303 17.1668 32.0303 16.8167 31.6802C16.4666 31.3301 16.4666 30.7657 16.8167 30.4156L17.9706 29.2617L16.8203 28.1078C16.4702 27.7577 16.4702 27.1933 16.8203 26.8432C17.1704 26.4931 17.7348 26.4931 18.0849 26.8432L19.2388 27.997L20.3927 26.8432C20.7428 26.4931 21.3073 26.4931 21.6573 26.8432C22.0074 27.1933 22.0074 27.7577 21.6573 28.1078L20.4999 29.2617L21.6538 30.4156C22.0039 30.7657 22.0039 31.3301 21.6538 31.6802C21.4823 31.8553 21.2537 31.941 21.025 31.941ZM31.1457 28.3686H26.3837C25.8907 28.3686 25.4906 27.9685 25.4906 27.4755C25.4906 26.9825 25.8907 26.5824 26.3837 26.5824H31.1457C31.6387 26.5824 32.0388 26.9825 32.0388 27.4755C32.0388 27.9685 31.6387 28.3686 31.1457 28.3686ZM19.2388 23.6065C18.7458 23.6065 18.3457 23.2064 18.3457 22.7134V21.2237H16.856C16.363 21.2237 15.9629 20.8236 15.9629 20.3306C15.9629 19.8376 16.363 19.4375 16.856 19.4375H18.3457V17.9478C18.3457 17.4548 18.7458 17.0547 19.2388 17.0547C19.7318 17.0547 20.1319 17.4548 20.1319 17.9478V19.4375H21.6216C22.1146 19.4375 22.5147 19.8376 22.5147 20.3306C22.5147 20.8236 22.1146 21.2237 21.6216 21.2237H20.1319V22.7134C20.1319 23.2064 19.7318 23.6065 19.2388 23.6065ZM31.1457 21.2237H26.3837C25.8907 21.2237 25.4906 20.8236 25.4906 20.3306C25.4906 19.8376 25.8907 19.4375 26.3837 19.4375H31.1457C31.6387 19.4375 32.0388 19.8376 32.0388 20.3306C32.0388 20.8236 31.6387 21.2237 31.1457 21.2237Z" fill="#1079E0"/>
</svg>
