<svg width="24" height="24" viewBox="0 0 24 24" fill="none" xmlns="http://www.w3.org/2000/svg">
<path d="M24 16.125C24 18.4031 22.7351 20.25 20.25 20.25H3.75C1.26488 20.25 0 18.4031 0 16.125V7.875C0 5.59688 1.26488 3.75 3.75 3.75H20.25C22.7351 3.75 24 5.59688 24 7.875V16.125Z" fill="#EC1C24"/>
<path d="M4.86475 6.2463L5.66687 7.8753L7.465 8.13592L6.16488 9.40155L6.47125 11.194L4.86475 10.3484L3.25787 11.194L3.56462 9.40155L2.26562 8.13592L4.06075 7.8753L4.86475 6.2463ZM7.69075 4.87305L7.91313 5.32492L8.41338 5.3973L8.05225 5.74942L8.13662 6.2463L7.69075 6.01155L7.24525 6.2463L7.32963 5.74942L6.96888 5.3973L7.468 5.32492L7.69075 4.87305ZM9.13488 6.4983L9.35762 6.9498L9.85563 7.02255L9.496 7.37542L9.58075 7.87155L9.13488 7.63717L8.68938 7.87155L8.77375 7.37542L8.41338 7.02255L8.91175 6.9498L9.13488 6.4983ZM9.13488 9.1068L9.35762 9.55942L9.85563 9.6318L9.496 9.98392L9.58075 10.4808L9.13488 10.2468L8.68938 10.4808L8.77375 9.98392L8.41338 9.6318L8.91175 9.55942L9.13488 9.1068ZM7.69075 10.939L7.91313 11.3909L8.41338 11.4629L8.05225 11.8147L8.13662 12.3123L7.69075 12.079L7.24525 12.3123L7.32963 11.8147L6.96888 11.4629L7.468 11.3909L7.69075 10.939Z" fill="#F9CB38"/>
</svg>
