<svg width="49" height="49" viewBox="0 0 49 49" fill="none" xmlns="http://www.w3.org/2000/svg">
<path d="M41.0866 28.842C40.9966 28.7372 40.8663 28.6771 40.7289 28.6771H38.4912V28.3953C38.4912 26.4563 36.9357 24.8791 35.0233 24.8791C33.2191 24.8791 31.7331 26.2833 31.5705 28.0703C31.4078 26.2833 29.9218 24.8791 28.1176 24.8791C26.3134 24.8791 24.8274 26.2833 24.6647 28.0703C24.502 26.2833 23.016 24.8791 21.2118 24.8791C19.4076 24.8791 17.9216 26.2833 17.759 28.0703C17.5963 26.2833 16.1103 24.8791 14.3061 24.8791C12.3937 24.8791 10.8382 26.4563 10.8382 28.3953V28.6771H8.60129C8.4639 28.6771 8.33362 28.7372 8.24361 28.842C8.15359 28.9469 8.11254 29.0862 8.13149 29.2239C8.68183 33.2309 10.6455 36.9145 13.6602 39.5965C16.7049 42.3034 20.6125 43.7941 24.6655 43.7941C28.7185 43.7941 32.6261 42.3034 35.67 39.5965C38.6847 36.9145 40.6484 33.2309 41.1987 29.2239C41.2177 29.0862 41.1766 28.9469 41.0866 28.842ZM35.0233 25.8398C36.413 25.8398 37.5437 26.9863 37.5437 28.3953V28.6771H32.503V28.3953C32.503 26.9863 33.6337 25.8398 35.0233 25.8398ZM28.1184 25.8398C29.508 25.8398 30.6387 26.9863 30.6387 28.3953V28.6771H25.5972V28.3953C25.5972 26.9863 26.7279 25.8398 28.1184 25.8398ZM21.2126 25.8398C22.6023 25.8398 23.733 26.9863 23.733 28.3953V28.6771H18.6922V28.3953C18.6922 26.9863 19.8229 25.8398 21.2126 25.8398ZM11.7873 28.3961C11.7873 26.9871 12.918 25.8406 14.3077 25.8406C15.6973 25.8406 16.828 26.9871 16.828 28.3961V28.6779H11.7873V28.3961ZM9.15558 29.6378H21.3058C21.2663 29.7115 21.2166 29.7828 21.1566 29.8484L20.7507 30.2919C20.2004 30.894 19.5797 31.2735 18.7973 31.4864L16.5248 32.1037C15.8458 32.2878 15.3515 32.789 15.1699 33.4775C14.9883 34.166 15.1683 34.8506 15.6658 35.3541L17.0933 36.8016C17.2576 36.9682 17.3247 37.1707 17.2939 37.4037C17.2631 37.6367 17.1447 37.8144 16.9433 37.9305C16.205 38.3564 15.7155 39.0681 15.5615 39.8727C12.2681 37.499 9.88674 33.8706 9.15558 29.6378ZM16.4585 40.4756C16.438 39.7759 16.7957 39.1218 17.4123 38.7663C17.8711 38.5013 18.1632 38.0634 18.2335 37.5326C18.3038 37.0018 18.1372 36.5014 17.7637 36.1227L16.3361 34.6752C16.0811 34.4166 15.9919 34.0796 16.085 33.7265C16.1782 33.3735 16.4214 33.1261 16.7704 33.0316L19.0428 32.4143C20.0053 32.1525 20.7689 31.6858 21.4463 30.9452L21.8522 30.5017C22.0804 30.2519 22.2375 29.9549 22.3133 29.6386H40.1762C40.0546 30.3408 39.888 31.0269 39.6788 31.693C39.1102 32.0557 38.0632 32.2862 36.946 32.2862C36.2361 32.2862 35.5618 32.1974 34.9965 32.0292C34.6846 31.9364 34.3964 31.8971 34.0324 31.8971C33.0478 31.8971 32.2471 32.709 32.2471 33.7073V34.1709C32.2471 34.419 32.0474 34.6216 31.8026 34.6216H28.2092C27.6928 34.6216 27.2419 34.6888 26.7476 34.8402C26.4547 34.9298 26.1791 35.0323 25.928 35.1452C25.4638 35.3541 25.144 35.7633 25.0492 36.2692C24.9545 36.7744 25.1045 37.2748 25.4606 37.6407C25.4969 37.6783 25.5348 37.7151 25.5735 37.7519C25.8388 38.0009 25.8759 38.4108 25.6604 38.7055L25.0137 39.5885C24.3039 40.5589 24.2644 41.831 24.8905 42.8326C24.8155 42.8334 24.7405 42.835 24.6655 42.835C21.6848 42.8334 18.866 41.9735 16.4585 40.4756ZM26.026 42.7725L25.793 42.4659C25.2735 41.7806 25.2656 40.8535 25.7741 40.1594L26.4208 39.2763C26.9253 38.5878 26.8369 37.6287 26.2162 37.0458C26.1886 37.0194 26.161 36.993 26.1349 36.9658C25.9944 36.8208 25.9423 36.6463 25.9794 36.447C26.0165 36.2476 26.1286 36.1043 26.3118 36.0218C26.5273 35.925 26.7658 35.8361 27.0208 35.7584C27.4283 35.6344 27.7836 35.5807 28.2084 35.5807H31.8018C32.5693 35.5807 33.1939 34.9474 33.1939 34.1693V33.7065C33.1939 33.2382 33.5697 32.8571 34.0316 32.8571C34.3072 32.8571 34.503 32.8835 34.7288 32.9507C35.3802 33.1445 36.1469 33.247 36.9452 33.247C37.7901 33.247 38.5804 33.1333 39.2326 32.9299C37.021 38.3636 31.9313 42.2505 26.026 42.7725ZM24.6655 16.8066C27.2648 16.8066 29.3801 14.6626 29.3801 12.0262C29.3801 9.39062 27.2656 7.24581 24.6655 7.24581C22.0662 7.24581 19.9509 9.38982 19.9509 12.0262C19.9509 14.6626 22.0662 16.8066 24.6655 16.8066ZM24.6655 8.20733C26.7429 8.20733 28.4326 9.92062 28.4326 12.027C28.4326 14.1334 26.7429 15.8467 24.6655 15.8467C22.5881 15.8467 20.8984 14.1334 20.8984 12.027C20.8984 9.92062 22.5881 8.20733 24.6655 8.20733ZM23.3421 18.716L24.2589 20.2684C24.3441 20.4133 24.4989 20.5022 24.6655 20.5022C24.8321 20.5022 24.9861 20.4133 25.0721 20.2684L25.9888 18.716C27.4575 18.4182 28.7966 17.6232 29.7781 16.4607C30.8196 15.227 31.3936 13.6522 31.3936 12.0262C31.3936 8.26498 28.375 5.20508 24.6655 5.20508C20.956 5.20508 17.9374 8.26498 17.9374 12.027C17.9374 13.653 18.5114 15.2278 19.5529 16.4615C20.5344 17.624 21.8735 18.419 23.3421 18.716ZM24.6655 6.1658C27.8531 6.1658 30.4461 8.79498 30.4461 12.027C30.4461 14.9084 28.4145 17.3406 25.6154 17.809C25.478 17.8322 25.358 17.9154 25.2861 18.0363L24.6655 19.0867L24.0449 18.0363C23.973 17.9154 23.853 17.8322 23.7156 17.809C20.9165 17.3406 18.8849 14.9084 18.8849 12.027C18.8849 8.79498 21.4779 6.1658 24.6655 6.1658ZM24.6655 14.8123C25.9888 14.8123 27.069 13.7203 27.0737 12.3785C27.0737 12.2512 27.0248 12.1287 26.9356 12.0382C26.8463 11.9477 26.7263 11.8973 26.6 11.8973H22.731C22.6055 11.8973 22.4846 11.9477 22.3954 12.0382C22.3062 12.1287 22.2565 12.2512 22.2572 12.3785C22.262 13.7211 23.3421 14.8123 24.6655 14.8123ZM26.0449 12.8572C25.8459 13.4353 25.3019 13.8516 24.6655 13.8516C24.0291 13.8516 23.4851 13.4353 23.2861 12.8572H26.0449ZM25.9707 10.5931V10.1032C25.9707 9.83816 26.1831 9.6228 26.4444 9.6228C26.7058 9.6228 26.9182 9.83816 26.9182 10.1032V10.5931C26.9182 10.8581 26.7058 11.0735 26.4444 11.0735C26.1831 11.0735 25.9707 10.8589 25.9707 10.5931ZM22.4128 10.5931V10.1032C22.4128 9.83816 22.6252 9.6228 22.8865 9.6228C23.1479 9.6228 23.3603 9.83816 23.3603 10.1032V10.5931C23.3603 10.8581 23.1479 11.0735 22.8865 11.0735C22.6252 11.0735 22.4128 10.8589 22.4128 10.5931ZM35.0233 24.478C36.1319 24.478 37.0344 23.5629 37.0344 22.4388C37.0344 21.3148 36.1319 20.3997 35.0233 20.3997C33.9147 20.3997 33.0122 21.3148 33.0122 22.4388C33.0122 23.5629 33.914 24.478 35.0233 24.478ZM35.0233 21.3604C35.61 21.3604 36.0869 21.844 36.0869 22.4388C36.0869 23.0337 35.61 23.5172 35.0233 23.5172C34.4367 23.5172 33.9598 23.0337 33.9598 22.4388C33.9598 21.844 34.4367 21.3604 35.0233 21.3604ZM28.1184 20.3997C27.0098 20.3997 26.1073 21.3148 26.1073 22.4388C26.1073 23.5629 27.0098 24.478 28.1184 24.478C29.227 24.478 30.1295 23.5629 30.1295 22.4388C30.1295 21.3148 29.227 20.3997 28.1184 20.3997ZM28.1184 23.5172C27.5317 23.5172 27.0548 23.0337 27.0548 22.4388C27.0548 21.844 27.5317 21.3604 28.1184 21.3604C28.705 21.3604 29.1819 21.844 29.1819 22.4388C29.1819 23.0337 28.7042 23.5172 28.1184 23.5172ZM19.2015 22.4388C19.2015 23.5629 20.104 24.478 21.2126 24.478C22.3212 24.478 23.2237 23.5629 23.2237 22.4388C23.2237 21.3148 22.3212 20.3997 21.2126 20.3997C20.104 20.3997 19.2015 21.314 19.2015 22.4388ZM22.2762 22.4388C22.2762 23.0337 21.7993 23.5172 21.2126 23.5172C20.626 23.5172 20.149 23.0337 20.149 22.4388C20.149 21.844 20.626 21.3604 21.2126 21.3604C21.7993 21.3604 22.2762 21.844 22.2762 22.4388ZM14.3077 24.478C15.4162 24.478 16.3187 23.5629 16.3187 22.4388C16.3187 21.3148 15.4162 20.3997 14.3077 20.3997C13.1991 20.3997 12.2966 21.3148 12.2966 22.4388C12.2966 23.5629 13.1991 24.478 14.3077 24.478ZM14.3077 21.3604C14.8943 21.3604 15.3712 21.844 15.3712 22.4388C15.3712 23.0337 14.8943 23.5172 14.3077 23.5172C13.721 23.5172 13.2441 23.0337 13.2441 22.4388C13.2441 21.844 13.721 21.3604 14.3077 21.3604Z" fill="#1079E0" stroke="#5479F7" stroke-width="0.5"/>
</svg>
