<svg width="48" height="49" viewBox="0 0 48 49" fill="none" xmlns="http://www.w3.org/2000/svg">
<path d="M18.1421 26.601H15.9851C14.8182 26.601 13.8635 27.5558 13.8635 28.7226V37.6333C13.8635 38.812 14.8182 39.7549 15.9851 39.7549H18.1421V26.601ZM34.0186 30.4671L32.062 37.5154C31.8862 38.159 31.5037 38.7268 30.9733 39.1315C30.443 39.5361 29.7943 39.7552 29.1272 39.7549H19.9101V26.601L23.7996 21.0967C24.1009 20.6733 24.5418 20.3698 25.0448 20.2395C25.5479 20.1092 26.0807 20.1605 26.5496 20.3844C27.0185 20.6083 27.3935 20.9904 27.6084 21.4635C27.8233 21.9366 27.8644 22.4703 27.7246 22.9708L26.6991 26.601H31.0837C33.0993 26.601 34.5608 28.5223 34.0186 30.4671ZM12.3101 13.0335L13.1952 14.8262C13.2363 14.9096 13.2971 14.9816 13.3722 15.0363C13.4474 15.0909 13.5347 15.1264 13.6266 15.1398L15.6056 15.4274C15.7111 15.4429 15.8102 15.4877 15.8916 15.5565C15.9731 15.6254 16.0337 15.7156 16.0666 15.817C16.0996 15.9185 16.1036 16.0271 16.0781 16.1307C16.0527 16.2342 15.9988 16.3287 15.9226 16.4033L14.4906 17.7988C14.4241 17.8637 14.3744 17.9436 14.3457 18.0319C14.3169 18.1202 14.31 18.2141 14.3256 18.3056L14.6638 20.2764C14.6818 20.3817 14.67 20.4899 14.6297 20.5888C14.5894 20.6877 14.5222 20.7734 14.4358 20.8362C14.3493 20.8989 14.2471 20.9363 14.1406 20.944C14.034 20.9517 13.9275 20.9295 13.8329 20.8798L12.0625 19.9499C11.9803 19.9069 11.8889 19.8845 11.7962 19.8845C11.7034 19.8845 11.612 19.9069 11.5298 19.9499L9.75943 20.8798C9.66486 20.9295 9.55829 20.9517 9.45176 20.944C9.34522 20.9363 9.24297 20.8989 9.15655 20.8362C9.07012 20.7734 9.00296 20.6877 8.96266 20.5888C8.92236 20.4899 8.91052 20.3817 8.92848 20.2764L9.26675 18.3056C9.28249 18.2141 9.27568 18.1201 9.24693 18.0318C9.21818 17.9435 9.16835 17.8635 9.10174 17.7988L7.67203 16.4033C7.59583 16.3287 7.54198 16.2342 7.51654 16.1307C7.49109 16.0271 7.49508 15.9185 7.52803 15.817C7.56098 15.7156 7.6216 15.6254 7.70306 15.5565C7.78452 15.4877 7.88358 15.4429 7.98909 15.4274L9.96806 15.1398C10.0599 15.1262 10.1472 15.0906 10.2223 15.036C10.2974 14.9814 10.3582 14.9094 10.3994 14.8262L11.2846 13.0335C11.3318 12.9378 11.4048 12.8572 11.4954 12.8009C11.5861 12.7445 11.6906 12.7146 11.7973 12.7146C11.904 12.7146 12.0086 12.7445 12.0992 12.8009C12.1898 12.8572 12.2629 12.9378 12.3101 13.0335ZM24.5127 8.31886L25.3979 10.1116C25.439 10.1949 25.4997 10.267 25.5749 10.3216C25.65 10.3762 25.7373 10.4118 25.8293 10.4251L27.8083 10.7127C27.9138 10.7283 28.0128 10.773 28.0943 10.8419C28.1757 10.9107 28.2364 11.001 28.2693 11.1024C28.3023 11.2038 28.3062 11.3125 28.2808 11.416C28.2554 11.5196 28.2015 11.614 28.1253 11.6886L26.6932 13.0842C26.6268 13.149 26.5771 13.229 26.5483 13.3173C26.5196 13.4055 26.5127 13.4995 26.5282 13.591L26.8665 15.5617C26.8845 15.667 26.8726 15.7752 26.8323 15.8741C26.792 15.9731 26.7249 16.0587 26.6384 16.1215C26.552 16.1843 26.4498 16.2216 26.3432 16.2293C26.2367 16.2371 26.1301 16.2148 26.0355 16.1652L24.2652 15.2352C24.183 15.1923 24.0916 15.1698 23.9988 15.1698C23.9061 15.1698 23.8147 15.1923 23.7324 15.2352L21.9621 16.1652C21.8675 16.2148 21.761 16.2371 21.6544 16.2293C21.5479 16.2216 21.4456 16.1843 21.3592 16.1215C21.2728 16.0587 21.2056 15.9731 21.1653 15.8741C21.125 15.7752 21.1132 15.667 21.1311 15.5617L21.4694 13.591C21.4852 13.4995 21.4783 13.4055 21.4496 13.3172C21.4208 13.2289 21.371 13.1489 21.3044 13.0842L19.8747 11.6886C19.7985 11.614 19.7446 11.5196 19.7192 11.416C19.6938 11.3125 19.6977 11.2038 19.7307 11.1024C19.7636 11.001 19.8243 10.9107 19.9057 10.8419C19.9872 10.773 20.0862 10.7283 20.1918 10.7127L22.1707 10.4251C22.2627 10.4118 22.35 10.3762 22.4251 10.3216C22.5003 10.267 22.561 10.1949 22.6021 10.1116L23.4873 8.31886C23.5345 8.22315 23.6075 8.14257 23.6981 8.08622C23.7887 8.02987 23.8933 8 24 8C24.1067 8 24.2113 8.02987 24.3019 8.08622C24.3925 8.14257 24.4655 8.22315 24.5127 8.31886ZM36.7154 13.0335L37.6006 14.8262C37.6416 14.9096 37.7024 14.9816 37.7775 15.0363C37.8527 15.0909 37.94 15.1264 38.0319 15.1398L40.0109 15.4274C40.1164 15.4429 40.2155 15.4877 40.2969 15.5565C40.3784 15.6254 40.439 15.7156 40.472 15.817C40.5049 15.9185 40.5089 16.0271 40.4835 16.1307C40.458 16.2342 40.4042 16.3287 40.328 16.4033L38.8959 17.7988C38.8295 17.8637 38.7797 17.9436 38.751 18.0319C38.7223 18.1202 38.7154 18.2141 38.7309 18.3056L39.0692 20.2764C39.0871 20.3817 39.0753 20.4899 39.035 20.5888C38.9947 20.6877 38.9275 20.7734 38.8411 20.8362C38.7547 20.8989 38.6524 20.9363 38.5459 20.944C38.4394 20.9517 38.3328 20.9295 38.2382 20.8798L36.4679 19.9499C36.3856 19.9069 36.2943 19.8845 36.2015 19.8845C36.1087 19.8845 36.0173 19.9069 35.9351 19.9499L34.1648 20.8798C34.0702 20.9295 33.9636 20.9517 33.8571 20.944C33.7506 20.9363 33.6483 20.8989 33.5619 20.8362C33.4754 20.7734 33.4083 20.6877 33.368 20.5888C33.3277 20.4899 33.3159 20.3817 33.3338 20.2764L33.6721 18.3056C33.6878 18.2141 33.681 18.1201 33.6523 18.0318C33.6235 17.9435 33.5737 17.8635 33.5071 17.7988L32.075 16.4033C31.9988 16.3287 31.9449 16.2342 31.9195 16.1307C31.8941 16.0271 31.898 15.9185 31.931 15.817C31.964 15.7156 32.0246 15.6254 32.106 15.5565C32.1875 15.4877 32.2866 15.4429 32.3921 15.4274L34.371 15.1398C34.463 15.1264 34.5503 15.0909 34.6254 15.0363C34.7006 14.9816 34.7613 14.9096 34.8024 14.8262L35.6876 13.0335C35.7348 12.9375 35.808 12.8567 35.8989 12.8002C35.9897 12.7437 36.0945 12.7137 36.2015 12.7137C36.3085 12.7137 36.4133 12.7437 36.5041 12.8002C36.5949 12.8567 36.6681 12.9375 36.7154 13.0335Z" fill="#1079E0"/>
</svg>
