<svg width="48" height="49" viewBox="0 0 48 49" fill="none" xmlns="http://www.w3.org/2000/svg">
<path d="M33.2793 26.5605C29.2987 26.5605 26.0605 29.7987 26.0605 33.7793C26.0605 37.7599 29.2987 40.998 33.2793 40.998C37.2599 40.998 40.498 37.7599 40.498 33.7793C40.498 29.7987 37.2599 26.5605 33.2793 26.5605ZM34.2809 33.8818C34.2809 34.4154 33.8478 34.8486 33.3141 34.8486H31.1871C30.6535 34.8486 30.2204 34.4154 30.2204 33.8818C30.2204 33.3481 30.6535 32.915 31.1871 32.915H32.3473V31.1103C32.3473 30.5766 32.7804 30.1435 33.3141 30.1435C33.8478 30.1435 34.2809 30.5766 34.2809 31.1103V33.8818Z" fill="#1079E0"/>
<path d="M33.2813 24.6286C34.2236 24.6286 35.1323 24.7717 35.9883 25.0372V18.9902C34.4781 20.7814 32.2191 21.9216 29.6983 21.9216H27.3864V22.3276C27.3864 24.7253 25.4354 26.6756 23.0377 26.6756H20.4506C18.0529 26.6756 16.1019 24.7253 16.1019 22.3276V21.9216H13.79C11.2692 21.9216 9.01014 20.7814 7.5 18.9902V32.943C7.5 33.4767 7.93313 33.9098 8.4668 33.9098H24.1296C24.1289 33.8673 24.1289 33.8241 24.1289 33.7809C24.1289 28.7343 28.2346 24.6286 33.2813 24.6286Z" fill="#1079E0"/>
<path d="M18.0355 22.3279C18.0355 23.6595 19.119 24.7423 20.4506 24.7423H23.0377C24.3693 24.7423 25.4528 23.6595 25.4528 22.3279V21.9219H18.0355V22.3279ZM13.79 19.9883H29.6983C33.1665 19.9883 35.9883 17.1665 35.9883 13.6983V12.834C35.9883 12.3003 35.5552 11.8672 35.0215 11.8672H27.2227V10.8927C27.2227 9.29744 25.9252 8 24.33 8H19.1583C17.5631 8 16.2656 9.29744 16.2656 10.8927V11.8672H8.4668C7.93313 11.8672 7.5 12.3003 7.5 12.834V13.6983C7.5 17.1665 10.3218 19.9883 13.79 19.9883ZM18.1992 10.8927C18.1992 10.3641 18.6298 9.93359 19.1583 9.93359H24.33C24.8585 9.93359 25.2891 10.3641 25.2891 10.8927V11.8672H18.1992V10.8927Z" fill="#1079E0"/>
</svg>
