<svg width="24" height="24" viewBox="0 0 24 24" fill="none" xmlns="http://www.w3.org/2000/svg">
<g clip-path="url(#clip0_28634_55629)">
<path d="M24 18.0007C24 18.7079 23.719 19.3862 23.219 19.8863C22.7189 20.3864 22.0406 20.6673 21.3333 20.6673H16V3.33398H21.3333C22.0406 3.33398 22.7189 3.61494 23.219 4.11503C23.719 4.61513 24 5.29341 24 6.00065V18.0007Z" fill="#ED2939"/>
<path d="M2.66667 3.33398C1.95942 3.33398 1.28115 3.61494 0.781049 4.11503C0.280952 4.61513 0 5.29341 0 6.00065L0 18.0007C0 18.7079 0.280952 19.3862 0.781049 19.8863C1.28115 20.3864 1.95942 20.6673 2.66667 20.6673H8V3.33398H2.66667Z" fill="#002495"/>
<path d="M8 3.33398H16V20.6673H8V3.33398Z" fill="#EEEEEE"/>
</g>
<defs>
<clipPath id="clip0_28634_55629">
<rect width="24" height="24" fill="white"/>
</clipPath>
</defs>
</svg>
