<svg width="16" height="16" viewBox="0 0 16 16" fill="none" xmlns="http://www.w3.org/2000/svg">
<path fill-rule="evenodd" clip-rule="evenodd" d="M14.3905 2.20247H9.3255V1.00897L1 2.29397V13.5575L9.3255 14.9915V13.2225H14.3905C14.544 13.2305 14.6943 13.1773 14.8086 13.0746C14.9229 12.9718 14.9917 12.8279 15 12.6745V2.74997C14.9916 2.59661 14.9227 2.45284 14.8085 2.3502C14.6942 2.24756 14.5439 2.19443 14.3905 2.20247ZM14.4705 12.7655H9.3085L9.3 11.821H10.5435V10.721H9.2905L9.2845 10.071H10.5435V8.97097H9.275L9.269 8.32097H10.5435V7.22097H9.265V6.57097H10.5435V5.47097H9.265V4.82097H10.5435V3.72097H9.265V2.72097H14.4705V12.7655Z" fill="#20744A"/>
<path d="M11.2432 3.71948H13.4047V4.81948H11.2432V3.71948ZM11.2432 5.46998H13.4047V6.56998H11.2432V5.46998ZM11.2432 7.22048H13.4047V8.32048H11.2432V7.22048ZM11.2432 8.97098H13.4047V10.071H11.2432V8.97098ZM11.2432 10.7215H13.4047V11.8215H11.2432V10.7215Z" fill="#20744A"/>
<path fill-rule="evenodd" clip-rule="evenodd" d="M3.17305 5.33652L4.24605 5.27502L4.92055 7.12952L5.71755 5.19852L6.79055 5.13702L5.48755 7.77002L6.79055 10.4095L5.65605 10.333L4.89005 8.32102L4.12355 10.2565L3.08105 10.1645L4.29205 7.83302L3.17305 5.33652Z" fill="white"/>
</svg>
