<svg width="24" height="24" viewBox="0 0 24 24" fill="none" xmlns="http://www.w3.org/2000/svg">
<g clip-path="url(#clip0_27830_93792)">
<path d="M23.63 4.66732C23.168 3.87332 22.318 3.33398 21.3333 3.33398H12V4.66732H23.63ZM0 16.6673H24V18.0007H0V16.6673ZM12 11.334H24V12.6673H12V11.334ZM12 8.66732H24V10.0007H12V8.66732ZM0 14.0007H24V15.334H0V14.0007ZM2.66667 20.6673H21.3333C22.318 20.6673 23.168 20.128 23.63 19.334H0.37C0.832 20.128 1.682 20.6673 2.66667 20.6673ZM12 6.00065H24V7.33398H12V6.00065Z" fill="#B22334"/>
<path d="M0.0453333 18.452C0.0564444 18.5142 0.0695556 18.5758 0.0846667 18.6367C0.102444 18.7033 0.122889 18.7691 0.146 18.834C0.205333 19.0067 0.277333 19.1734 0.368 19.3293L0.37 19.3327H23.63L23.6313 19.33C23.7217 19.1733 23.7958 19.0078 23.8527 18.836C23.8959 18.7107 23.9298 18.5824 23.954 18.452C23.9813 18.3054 24 18.1547 24 17.9993H0C0 18.1547 0.0186667 18.3047 0.0453333 18.452ZM0 15.3327H24V16.666H0V15.3327ZM0 12.666V13.9993H24V12.666H12H0ZM12 9.99935H24V11.3327H12V9.99935ZM12 7.33268H24V8.66602H12V7.33268ZM0.0853333 5.36202C0.102 5.29402 0.125333 5.22935 0.146667 5.16402C0.123664 5.2292 0.103204 5.29525 0.0853333 5.36202ZM12 5.99935H24C24 5.84402 23.9813 5.69335 23.954 5.54602C23.9307 5.41542 23.8966 5.28698 23.852 5.16202C23.7951 4.98955 23.7207 4.82336 23.63 4.66602H12V5.99935Z" fill="#EEEEEE"/>
<path d="M12 3.33398H2.66667C1.95942 3.33398 1.28115 3.61494 0.781049 4.11503C0.280952 4.61513 0 5.29341 0 6.00065L0 12.6673H12V3.33398Z" fill="#3C3B6E"/>
<path d="M1.33398 5.15002L1.74598 5.44935L1.58865 5.93268L1.99998 5.63402L2.41198 5.93268L2.25465 5.44935L2.66665 5.15002H2.15732L1.99998 4.66602L1.84332 5.15002H1.33398ZM2.66732 6.48335L3.07932 6.78268L2.92198 7.26602L3.33332 6.96735L3.74532 7.26602L3.58798 6.78268L3.99998 6.48335H3.49065L3.33332 5.99935L3.17665 6.48335H2.66732ZM5.33398 6.48335L5.74599 6.78268L5.58865 7.26602L5.99998 6.96735L6.41198 7.26602L6.25465 6.78268L6.66665 6.48335H6.15732L5.99998 5.99935L5.84332 6.48335H5.33398ZM8.00065 6.48335L8.41265 6.78268L8.25532 7.26602L8.66665 6.96735L9.07865 7.26602L8.92132 6.78268L9.33332 6.48335H8.82399L8.66665 5.99935L8.50998 6.48335H8.00065ZM2.66732 9.15002L3.07932 9.44935L2.92198 9.93268L3.33332 9.63402L3.74532 9.93268L3.58798 9.44935L3.99998 9.15002H3.49065L3.33332 8.66602L3.17665 9.15002H2.66732ZM5.33398 9.15002L5.74599 9.44935L5.58865 9.93268L5.99998 9.63402L6.41198 9.93268L6.25465 9.44935L6.66665 9.15002H6.15732L5.99998 8.66602L5.84332 9.15002H5.33398ZM8.00065 9.15002L8.41265 9.44935L8.25532 9.93268L8.66665 9.63402L9.07865 9.93268L8.92132 9.44935L9.33332 9.15002H8.82399L8.66665 8.66602L8.50998 9.15002H8.00065ZM4.00065 5.15002L4.41265 5.44935L4.25532 5.93268L4.66665 5.63402L5.07865 5.93268L4.92132 5.44935L5.33332 5.15002H4.82398L4.66665 4.66602L4.50998 5.15002H4.00065ZM6.66732 5.15002L7.07932 5.44935L6.92198 5.93268L7.33332 5.63402L7.74532 5.93268L7.58799 5.44935L7.99998 5.15002H7.49065L7.33332 4.66602L7.17665 5.15002H6.66732ZM9.33398 5.15002L9.74599 5.44935L9.58865 5.93268L9.99998 5.63402L10.412 5.93268L10.2547 5.44935L10.6667 5.15002H10.1573L9.99998 4.66602L9.84332 5.15002H9.33398ZM1.33398 7.81668L1.74598 8.11602L1.58865 8.59935L1.99998 8.30068L2.41198 8.59935L2.25465 8.11602L2.66665 7.81668H2.15732L1.99998 7.33268L1.84332 7.81668H1.33398ZM4.25532 8.59935L4.66665 8.30068L5.07865 8.59935L4.92132 8.11602L5.33332 7.81668H4.82398L4.66665 7.33268L4.50998 7.81668H4.00065L4.41265 8.11602L4.25532 8.59935ZM6.66732 7.81668L7.07932 8.11602L6.92198 8.59935L7.33332 8.30068L7.74532 8.59935L7.58799 8.11602L7.99998 7.81668H7.49065L7.33332 7.33268L7.17665 7.81668H6.66732ZM9.33398 7.81668L9.74599 8.11602L9.58865 8.59935L9.99998 8.30068L10.412 8.59935L10.2547 8.11602L10.6667 7.81668H10.1573L9.99998 7.33268L9.84332 7.81668H9.33398ZM1.33398 10.4833L1.74598 10.7827L1.58865 11.266L1.99998 10.9673L2.41198 11.266L2.25465 10.7827L2.66665 10.4833H2.15732L1.99998 9.99935L1.84332 10.4833H1.33398ZM4.25532 11.266L4.66665 10.9673L5.07865 11.266L4.92132 10.7827L5.33332 10.4833H4.82398L4.66665 9.99935L4.50998 10.4833H4.00065L4.41265 10.7827L4.25532 11.266ZM6.66732 10.4833L7.07932 10.7827L6.92198 11.266L7.33332 10.9673L7.74532 11.266L7.58799 10.7827L7.99998 10.4833H7.49065L7.33332 9.99935L7.17665 10.4833H6.66732ZM9.33398 10.4833L9.74599 10.7827L9.58865 11.266L9.99998 10.9673L10.412 11.266L10.2547 10.7827L10.6667 10.4833H10.1573L9.99998 9.99935L9.84332 10.4833H9.33398Z" fill="white"/>
</g>
<defs>
<clipPath id="clip0_27830_93792">
<rect width="24" height="24" fill="white"/>
</clipPath>
</defs>
</svg>
