<svg width="49" height="49" viewBox="0 0 49 49" fill="none" xmlns="http://www.w3.org/2000/svg">
<path d="M18.24 15.1274C18.3573 15.045 18.4087 14.9028 18.3647 14.7681C18.328 14.6333 18.2033 14.536 18.064 14.5435H13.202V12.8219C13.202 12.6422 13.0553 12.5 12.8867 12.5C12.806 12.5 12.7327 12.5299 12.674 12.5898L7.93665 17.1409C7.87065 17.2008 7.83398 17.2906 7.83398 17.3804C7.83398 17.4703 7.87065 17.5526 7.92932 17.62L12.674 22.1636C12.7327 22.2235 12.8133 22.2534 12.894 22.2534C12.938 22.2534 12.982 22.2459 13.0187 22.2235C13.136 22.1711 13.2093 22.0588 13.2093 21.9315V20.2099H13.9353C14.06 20.2099 14.1773 20.1351 14.2213 20.0153C15.0793 18.0242 16.4727 16.325 18.24 15.1274ZM40.7313 31.393L35.994 26.8419C35.862 26.7222 35.664 26.7296 35.5466 26.8569C35.4953 26.9168 35.466 26.9916 35.4587 27.074V28.7881H34.7326C34.608 28.7881 34.4907 28.863 34.4466 28.9827C33.596 30.9738 32.2027 32.6655 30.428 33.8632C30.3106 33.9455 30.2593 34.0877 30.3033 34.2225C30.34 34.3572 30.4647 34.4545 30.604 34.447H35.4587V36.1761C35.4587 36.3034 35.532 36.4232 35.6493 36.4756C35.686 36.4905 35.73 36.5055 35.774 36.498C35.8547 36.498 35.9353 36.4681 35.994 36.4082L40.7313 31.8571C40.7973 31.7972 40.834 31.7074 40.834 31.6176C40.834 31.5352 40.7973 31.4529 40.7313 31.393ZM22.1266 20.8237C21.452 21.5198 21.452 22.6426 22.134 23.3313C22.4567 23.6606 22.8967 23.8478 23.3587 23.8478H23.7033V20.3072H23.3513C22.8893 20.3072 22.4493 20.4943 22.1266 20.8237ZM24.972 28.6908H25.324C26.2847 28.7207 27.084 27.9423 27.106 26.9617C27.1353 25.9811 26.3727 25.1652 25.412 25.1427C25.3827 25.1427 25.346 25.1427 25.3167 25.1427H24.9647V28.6908H24.972ZM34.0947 24.499C34.0947 18.9973 29.724 14.536 24.334 14.536C18.944 14.536 14.5733 18.9973 14.5733 24.499C14.5733 30.0007 18.944 34.462 24.334 34.462C29.724 34.4545 34.0873 30.0007 34.0947 24.499ZM25.3167 23.8478C26.974 23.8104 28.3453 25.1577 28.382 26.8494C28.4187 28.5411 27.0986 29.9409 25.4413 29.9783C25.3973 29.9783 25.3606 29.9783 25.3167 29.9783H24.972V30.8765C24.972 31.2358 24.686 31.5277 24.334 31.5277C23.982 31.5277 23.696 31.2358 23.696 30.8765V29.9783H20.9753C20.6233 29.9783 20.3373 29.6863 20.3373 29.3271C20.3373 28.9678 20.6233 28.6758 20.9753 28.6758H23.696V25.1353H23.344C21.6867 25.1727 20.3153 23.8253 20.2787 22.1336C20.242 20.4419 21.562 19.0422 23.2193 19.0048H23.344H23.696V18.1065C23.696 17.7472 23.982 17.4553 24.334 17.4553C24.686 17.4553 24.972 17.7472 24.972 18.1065V19.0048H27.6926C28.0446 19.0048 28.3307 19.2967 28.3307 19.656C28.3307 20.0153 28.0446 20.3072 27.6926 20.3072H24.972V23.8478H25.3167Z" fill="#1079E0"/>
</svg>
